<svg width="1406" height="402" viewBox="0 0 1406 402" fill="none" xmlns="http://www.w3.org/2000/svg">
<path d="M48 73C48 56.4315 61.4315 43 78 43H161.16C177.729 43 191.16 56.4315 191.16 73V156.16C191.16 172.729 177.729 186.16 161.16 186.16H78C61.4315 186.16 48 172.729 48 156.16V73Z" fill="url(#paint0_linear_24_9)"/>
<path d="M48 245.84C48 229.271 61.4315 215.84 78 215.84H161.16C177.729 215.84 191.16 229.271 191.16 245.84V329C191.16 345.569 177.729 359 161.16 359H78C61.4315 359 48 345.569 48 329V245.84Z" fill="url(#paint1_linear_24_9)"/>
<path d="M220.84 73C220.84 56.4315 234.271 43 250.84 43H334C350.569 43 364 56.4315 364 73V329C364 345.569 350.569 359 334 359H250.84C234.271 359 220.84 345.569 220.84 329V73Z" fill="url(#paint2_linear_24_9)"/>
<mask id="path-2-outside-1_24_9" maskUnits="userSpaceOnUse" x="460" y="96" width="855" height="216" fill="black">
<rect fill="white" x="460" y="96" width="855" height="216"/>
<path d="M461.2 309V99H551.8C575.2 99 593.3 103.7 606.1 113.1C619.1 122.5 625.6 135.8 625.6 153C625.6 164.4 622.9 174 617.5 181.8C612.3 189.6 605.1 195.5 595.9 199.5C586.9 203.5 577 205.5 566.2 205.5L571.3 198.3C584.7 198.3 596.2 200.4 605.8 204.6C615.6 208.6 623.2 214.7 628.6 222.9C634 230.9 636.7 240.9 636.7 252.9C636.7 270.7 630.1 284.5 616.9 294.3C603.9 304.1 584.2 309 557.8 309H461.2ZM483.4 290.7H557.5C575.9 290.7 590 287.6 599.8 281.4C609.6 275 614.5 264.9 614.5 251.1C614.5 237.5 609.6 227.6 599.8 221.4C590 215 575.9 211.8 557.5 211.8H481V193.5H550.3C567.1 193.5 580.1 190.3 589.3 183.9C598.7 177.5 603.4 168 603.4 155.4C603.4 142.6 598.7 133.1 589.3 126.9C580.1 120.5 567.1 117.3 550.3 117.3H483.4V290.7ZM779.172 310.8C763.372 310.8 748.672 308.2 735.072 303C721.672 297.6 709.972 290.1 699.972 280.5C690.172 270.7 682.472 259.4 676.872 246.6C671.472 233.6 668.772 219.4 668.772 204C668.772 188.6 671.472 174.5 676.872 161.7C682.472 148.7 690.172 137.4 699.972 127.8C709.972 118 721.672 110.5 735.072 105.3C748.472 99.9 763.172 97.2 779.172 97.2C794.972 97.2 809.572 99.9 822.972 105.3C836.372 110.5 847.972 117.9 857.772 127.5C867.772 137.1 875.472 148.4 880.872 161.4C886.472 174.4 889.272 188.6 889.272 204C889.272 219.4 886.472 233.6 880.872 246.6C875.472 259.6 867.772 270.9 857.772 280.5C847.972 290.1 836.372 297.6 822.972 303C809.572 308.2 794.972 310.8 779.172 310.8ZM779.172 291C791.772 291 803.372 288.9 813.972 284.7C824.772 280.3 834.072 274.2 841.872 266.4C849.872 258.4 856.072 249.2 860.472 238.8C864.872 228.2 867.072 216.6 867.072 204C867.072 191.4 864.872 179.9 860.472 169.5C856.072 158.9 849.872 149.7 841.872 141.9C834.072 133.9 824.772 127.8 813.972 123.6C803.372 119.2 791.772 117 779.172 117C766.572 117 754.872 119.2 744.072 123.6C733.272 127.8 723.872 133.9 715.872 141.9C708.072 149.7 701.872 158.9 697.272 169.5C692.872 179.9 690.672 191.4 690.672 204C690.672 216.4 692.872 227.9 697.272 238.5C701.872 249.1 708.072 258.4 715.872 266.4C723.872 274.2 733.272 280.3 744.072 284.7C754.872 288.9 766.572 291 779.172 291ZM980.05 309V231L985.15 244.8L896.05 99H919.75L998.05 227.1H985.45L1063.75 99H1085.95L996.85 244.8L1001.95 231V309H980.05ZM1115.99 309V99H1201.49C1223.89 99 1243.49 103.5 1260.29 112.5C1277.29 121.3 1290.49 133.6 1299.89 149.4C1309.29 165.2 1313.99 183.4 1313.99 204C1313.99 224.6 1309.29 242.8 1299.89 258.6C1290.49 274.4 1277.29 286.8 1260.29 295.8C1243.49 304.6 1223.89 309 1201.49 309H1115.99ZM1138.19 289.8H1200.29C1218.89 289.8 1234.99 286.2 1248.59 279C1262.39 271.6 1273.09 261.5 1280.69 248.7C1288.29 235.7 1292.09 220.8 1292.09 204C1292.09 187 1288.29 172.1 1280.69 159.3C1273.09 146.5 1262.39 136.5 1248.59 129.3C1234.99 121.9 1218.89 118.2 1200.29 118.2H1138.19V289.8Z"/>
</mask>
<path d="M461.2 309V99H551.8C575.2 99 593.3 103.7 606.1 113.1C619.1 122.5 625.6 135.8 625.6 153C625.6 164.4 622.9 174 617.5 181.8C612.3 189.6 605.1 195.5 595.9 199.5C586.9 203.5 577 205.5 566.2 205.5L571.3 198.3C584.7 198.3 596.2 200.4 605.8 204.6C615.6 208.6 623.2 214.7 628.6 222.9C634 230.9 636.7 240.9 636.7 252.9C636.7 270.7 630.1 284.5 616.9 294.3C603.9 304.1 584.2 309 557.8 309H461.2ZM483.4 290.7H557.5C575.9 290.7 590 287.6 599.8 281.4C609.6 275 614.5 264.9 614.5 251.1C614.5 237.5 609.6 227.6 599.8 221.4C590 215 575.9 211.8 557.5 211.8H481V193.5H550.3C567.1 193.5 580.1 190.3 589.3 183.9C598.7 177.5 603.4 168 603.4 155.4C603.4 142.6 598.7 133.1 589.3 126.9C580.1 120.5 567.1 117.3 550.3 117.3H483.4V290.7ZM779.172 310.8C763.372 310.8 748.672 308.2 735.072 303C721.672 297.6 709.972 290.1 699.972 280.5C690.172 270.7 682.472 259.4 676.872 246.6C671.472 233.6 668.772 219.4 668.772 204C668.772 188.6 671.472 174.5 676.872 161.7C682.472 148.7 690.172 137.4 699.972 127.8C709.972 118 721.672 110.5 735.072 105.3C748.472 99.9 763.172 97.2 779.172 97.2C794.972 97.2 809.572 99.9 822.972 105.3C836.372 110.5 847.972 117.9 857.772 127.5C867.772 137.1 875.472 148.4 880.872 161.4C886.472 174.4 889.272 188.6 889.272 204C889.272 219.4 886.472 233.6 880.872 246.6C875.472 259.6 867.772 270.9 857.772 280.5C847.972 290.1 836.372 297.6 822.972 303C809.572 308.2 794.972 310.8 779.172 310.8ZM779.172 291C791.772 291 803.372 288.9 813.972 284.7C824.772 280.3 834.072 274.2 841.872 266.4C849.872 258.4 856.072 249.2 860.472 238.8C864.872 228.2 867.072 216.6 867.072 204C867.072 191.4 864.872 179.9 860.472 169.5C856.072 158.9 849.872 149.7 841.872 141.9C834.072 133.9 824.772 127.8 813.972 123.6C803.372 119.2 791.772 117 779.172 117C766.572 117 754.872 119.2 744.072 123.6C733.272 127.8 723.872 133.9 715.872 141.9C708.072 149.7 701.872 158.9 697.272 169.5C692.872 179.9 690.672 191.4 690.672 204C690.672 216.4 692.872 227.9 697.272 238.5C701.872 249.1 708.072 258.4 715.872 266.4C723.872 274.2 733.272 280.3 744.072 284.7C754.872 288.9 766.572 291 779.172 291ZM980.05 309V231L985.15 244.8L896.05 99H919.75L998.05 227.1H985.45L1063.75 99H1085.95L996.85 244.8L1001.95 231V309H980.05ZM1115.99 309V99H1201.49C1223.89 99 1243.49 103.5 1260.29 112.5C1277.29 121.3 1290.49 133.6 1299.89 149.4C1309.29 165.2 1313.99 183.4 1313.99 204C1313.99 224.6 1309.29 242.8 1299.89 258.6C1290.49 274.4 1277.29 286.8 1260.29 295.8C1243.49 304.6 1223.89 309 1201.49 309H1115.99ZM1138.19 289.8H1200.29C1218.89 289.8 1234.99 286.2 1248.59 279C1262.39 271.6 1273.09 261.5 1280.69 248.7C1288.29 235.7 1292.09 220.8 1292.09 204C1292.09 187 1288.29 172.1 1280.69 159.3C1273.09 146.5 1262.39 136.5 1248.59 129.3C1234.99 121.9 1218.89 118.2 1200.29 118.2H1138.19V289.8Z" fill="white"/>
<path d="M461.2 309H460.2V310H461.2V309ZM461.2 99V98H460.2V99H461.2ZM606.1 113.1L605.508 113.906L605.514 113.91L606.1 113.1ZM617.5 181.8L616.678 181.231L616.673 181.238L616.668 181.245L617.5 181.8ZM595.9 199.5L595.501 198.583L595.494 198.586L595.9 199.5ZM566.2 205.5L565.384 204.922L564.266 206.5H566.2V205.5ZM571.3 198.3V197.3H570.783L570.484 197.722L571.3 198.3ZM605.8 204.6L605.399 205.516L605.411 205.521L605.422 205.526L605.8 204.6ZM628.6 222.9L627.765 223.45L627.771 223.459L628.6 222.9ZM616.9 294.3L616.304 293.497L616.298 293.501L616.9 294.3ZM483.4 290.7H482.4V291.7H483.4V290.7ZM599.8 281.4L600.335 282.245L600.341 282.241L600.347 282.237L599.8 281.4ZM599.8 221.4L599.253 222.237L599.259 222.241L599.265 222.245L599.8 221.4ZM481 211.8H480V212.8H481V211.8ZM481 193.5V192.5H480V193.5H481ZM589.3 183.9L588.737 183.073L588.729 183.079L589.3 183.9ZM589.3 126.9L588.729 127.721L588.739 127.728L588.749 127.735L589.3 126.9ZM483.4 117.3V116.3H482.4V117.3H483.4ZM462.2 309V99H460.2V309H462.2ZM461.2 100H551.8V98H461.2V100ZM551.8 100C575.083 100 592.944 104.679 605.508 113.906L606.692 112.294C593.656 102.721 575.317 98 551.8 98V100ZM605.514 113.91C618.233 123.107 624.6 136.094 624.6 153H626.6C626.6 135.506 619.967 121.893 606.686 112.29L605.514 113.91ZM624.6 153C624.6 164.238 621.94 173.629 616.678 181.231L618.322 182.369C623.86 174.371 626.6 164.562 626.6 153H624.6ZM616.668 181.245C611.582 188.874 604.538 194.654 595.501 198.583L596.299 200.417C605.662 196.346 613.018 190.326 618.332 182.355L616.668 181.245ZM595.494 198.586C586.634 202.524 576.874 204.5 566.2 204.5V206.5C577.126 206.5 587.166 204.476 596.306 200.414L595.494 198.586ZM567.016 206.078L572.116 198.878L570.484 197.722L565.384 204.922L567.016 206.078ZM571.3 199.3C584.599 199.3 595.956 201.385 605.399 205.516L606.201 203.684C596.444 199.415 584.801 197.3 571.3 197.3V199.3ZM605.422 205.526C615.051 209.456 622.485 215.432 627.765 223.45L629.435 222.35C623.915 213.968 616.149 207.744 606.178 203.674L605.422 205.526ZM627.771 223.459C633.035 231.258 635.7 241.051 635.7 252.9H637.7C637.7 240.749 634.965 230.542 629.429 222.341L627.771 223.459ZM635.7 252.9C635.7 270.414 629.226 283.903 616.304 293.497L617.496 295.103C630.974 285.097 637.7 270.986 637.7 252.9H635.7ZM616.298 293.501C603.55 303.112 584.107 308 557.8 308V310C584.293 310 604.25 305.088 617.502 295.099L616.298 293.501ZM557.8 308H461.2V310H557.8V308ZM483.4 291.7H557.5V289.7H483.4V291.7ZM557.5 291.7C575.988 291.7 590.306 288.589 600.335 282.245L599.265 280.555C589.694 286.611 575.812 289.7 557.5 289.7V291.7ZM600.347 282.237C610.484 275.617 615.5 265.168 615.5 251.1H613.5C613.5 264.632 608.716 274.383 599.253 280.563L600.347 282.237ZM615.5 251.1C615.5 237.226 610.478 226.972 600.335 220.555L599.265 222.245C608.722 228.228 613.5 237.774 613.5 251.1H615.5ZM600.347 220.563C590.316 214.012 575.992 210.8 557.5 210.8V212.8C575.808 212.8 589.684 215.988 599.253 222.237L600.347 220.563ZM557.5 210.8H481V212.8H557.5V210.8ZM482 211.8V193.5H480V211.8H482ZM481 194.5H550.3V192.5H481V194.5ZM550.3 194.5C567.208 194.5 580.439 191.282 589.871 184.721L588.729 183.079C579.761 189.318 566.992 192.5 550.3 192.5V194.5ZM589.863 184.727C599.569 178.118 604.4 168.289 604.4 155.4H602.4C602.4 167.711 597.831 176.882 588.737 183.073L589.863 184.727ZM604.4 155.4C604.4 142.318 599.573 132.478 589.851 126.065L588.749 127.735C597.827 133.722 602.4 142.882 602.4 155.4H604.4ZM589.871 126.079C580.439 119.518 567.208 116.3 550.3 116.3V118.3C566.992 118.3 579.761 121.482 588.729 127.721L589.871 126.079ZM550.3 116.3H483.4V118.3H550.3V116.3ZM482.4 117.3V290.7H484.4V117.3H482.4ZM735.072 303L734.698 303.928L734.706 303.931L734.715 303.934L735.072 303ZM699.972 280.5L699.265 281.207L699.272 281.214L699.279 281.221L699.972 280.5ZM676.872 246.6L675.948 246.984L675.952 246.992L675.956 247.001L676.872 246.6ZM676.872 161.7L675.953 161.304L675.951 161.311L676.872 161.7ZM699.972 127.8L700.672 128.514L700.672 128.514L699.972 127.8ZM735.072 105.3L735.434 106.232L735.446 106.228L735.072 105.3ZM822.972 105.3L822.598 106.228L822.61 106.232L822.972 105.3ZM857.772 127.5L857.072 128.214L857.079 128.221L857.772 127.5ZM880.872 161.4L879.948 161.784L879.953 161.796L880.872 161.4ZM880.872 246.6L879.953 246.204L879.948 246.216L880.872 246.6ZM857.772 280.5L857.079 279.779L857.072 279.786L857.772 280.5ZM822.972 303L823.334 303.932L823.346 303.928L822.972 303ZM813.972 284.7L814.34 285.63L814.349 285.626L813.972 284.7ZM841.872 266.4L841.165 265.693L841.165 265.693L841.872 266.4ZM860.472 238.8L861.393 239.19L861.395 239.183L860.472 238.8ZM860.472 169.5L859.548 169.883L859.551 169.89L860.472 169.5ZM841.872 141.9L841.156 142.598L841.165 142.607L841.174 142.616L841.872 141.9ZM813.972 123.6L813.589 124.524L813.599 124.528L813.609 124.532L813.972 123.6ZM744.072 123.6L744.434 124.532L744.442 124.529L744.449 124.526L744.072 123.6ZM715.872 141.9L715.165 141.193L715.165 141.193L715.872 141.9ZM697.272 169.5L696.354 169.102L696.351 169.11L697.272 169.5ZM697.272 238.5L696.348 238.883L696.351 238.891L696.355 238.898L697.272 238.5ZM715.872 266.4L715.156 267.098L715.165 267.107L715.174 267.116L715.872 266.4ZM744.072 284.7L743.695 285.626L743.702 285.629L743.709 285.632L744.072 284.7ZM779.172 309.8C763.484 309.8 748.906 307.219 735.429 302.066L734.715 303.934C748.438 309.181 763.26 311.8 779.172 311.8V309.8ZM735.446 302.072C722.159 296.718 710.568 289.286 700.664 279.779L699.279 281.221C709.375 290.914 721.185 298.482 734.698 303.928L735.446 302.072ZM700.679 279.793C690.968 270.082 683.338 258.886 677.788 246.199L675.956 247.001C681.605 259.914 689.376 271.318 699.265 281.207L700.679 279.793ZM677.795 246.216C672.45 233.349 669.772 219.281 669.772 204H667.772C667.772 219.519 670.493 233.851 675.948 246.984L677.795 246.216ZM669.772 204C669.772 188.719 672.451 174.753 677.793 162.089L675.951 161.311C670.493 174.247 667.772 188.481 667.772 204H669.772ZM677.79 162.096C683.341 149.211 690.968 138.02 700.672 128.514L699.272 127.086C689.376 136.78 681.603 148.189 675.953 161.304L677.79 162.096ZM700.672 128.514C710.572 118.812 722.157 111.385 735.434 106.232L734.71 104.368C721.187 109.615 709.371 117.188 699.272 127.086L700.672 128.514ZM735.446 106.228C748.715 100.88 763.286 98.2 779.172 98.2V96.2C763.058 96.2 748.229 98.9197 734.698 104.372L735.446 106.228ZM779.172 98.2C794.856 98.2 809.328 100.88 822.598 106.228L823.346 104.372C809.816 98.9203 795.088 96.2 779.172 96.2V98.2ZM822.61 106.232C835.89 111.386 847.373 118.714 857.072 128.214L858.472 126.786C848.57 117.086 836.854 109.614 823.334 104.368L822.61 106.232ZM857.079 128.221C866.978 137.724 874.6 148.909 879.948 161.784L881.795 161.016C876.343 147.891 868.565 136.476 858.464 126.779L857.079 128.221ZM879.953 161.796C885.495 174.66 888.272 188.724 888.272 204H890.272C890.272 188.476 887.449 174.14 881.79 161.004L879.953 161.796ZM888.272 204C888.272 219.276 885.495 233.34 879.953 246.204L881.79 246.996C887.449 233.86 890.272 219.524 890.272 204H888.272ZM879.948 246.216C874.6 259.091 866.978 270.276 857.079 279.779L858.464 281.221C868.565 271.524 876.343 260.109 881.795 246.984L879.948 246.216ZM857.072 279.786C847.371 289.289 835.883 296.719 822.598 302.072L823.346 303.928C836.861 298.481 848.573 290.911 858.472 281.214L857.072 279.786ZM822.61 302.068C809.336 307.219 794.86 309.8 779.172 309.8V311.8C795.083 311.8 809.807 309.181 823.334 303.932L822.61 302.068ZM779.172 292C791.885 292 803.611 289.881 814.34 285.63L813.604 283.77C803.132 287.919 791.659 290 779.172 290V292ZM814.349 285.626C825.265 281.179 834.679 275.007 842.579 267.107L841.165 265.693C833.464 273.393 824.278 279.421 813.595 283.774L814.349 285.626ZM842.579 267.107C850.67 259.016 856.943 249.708 861.393 239.19L859.551 238.41C855.201 248.692 849.074 257.784 841.165 265.693L842.579 267.107ZM861.395 239.183C865.851 228.45 868.072 216.719 868.072 204H866.072C866.072 216.481 863.893 227.95 859.548 238.417L861.395 239.183ZM868.072 204C868.072 191.282 865.851 179.647 861.393 169.11L859.551 169.89C863.893 180.153 866.072 191.518 866.072 204H868.072ZM861.395 169.117C856.945 158.395 850.67 149.081 842.57 141.184L841.174 142.616C849.074 150.319 855.199 159.405 859.548 169.883L861.395 169.117ZM842.588 141.202C834.684 133.096 825.262 126.918 814.334 122.668L813.609 124.532C824.281 128.682 833.459 134.704 841.156 142.598L842.588 141.202ZM814.355 122.676C803.622 118.221 791.891 116 779.172 116V118C791.653 118 803.121 120.179 813.589 124.524L814.355 122.676ZM779.172 116C766.453 116 754.624 118.221 743.695 122.674L744.449 124.526C755.12 120.179 766.691 118 779.172 118V116ZM743.709 122.668C732.783 126.917 723.265 133.092 715.165 141.193L716.579 142.607C724.479 134.708 733.76 128.683 744.434 124.532L743.709 122.668ZM715.165 141.193C707.272 149.086 701.002 158.392 696.355 169.102L698.189 169.898C702.742 159.408 708.872 150.314 716.579 142.607L715.165 141.193ZM696.351 169.11C691.893 179.647 689.672 191.282 689.672 204H691.672C691.672 191.518 693.851 180.153 698.193 169.89L696.351 169.11ZM689.672 204C689.672 216.521 691.894 228.152 696.348 238.883L698.195 238.117C693.85 227.648 691.672 216.279 691.672 204H689.672ZM696.355 238.898C701.001 249.606 707.268 259.008 715.156 267.098L716.588 265.702C708.876 257.792 702.743 248.594 698.189 238.102L696.355 238.898ZM715.174 267.116C723.27 275.01 732.78 281.18 743.695 285.626L744.449 283.774C733.763 279.42 724.474 273.39 716.57 265.684L715.174 267.116ZM743.709 285.632C754.635 289.881 766.459 292 779.172 292V290C766.685 290 755.109 287.919 744.434 283.768L743.709 285.632ZM980.05 309H979.05V310H980.05V309ZM980.05 231L980.988 230.653L979.05 231H980.05ZM985.15 244.8L984.297 245.321L986.088 244.453L985.15 244.8ZM896.05 99V98H894.267L895.197 99.5214L896.05 99ZM919.75 99L920.603 98.4785L920.311 98H919.75V99ZM998.05 227.1V228.1H999.833L998.903 226.578L998.05 227.1ZM985.45 227.1L984.597 226.578L983.667 228.1H985.45V227.1ZM1063.75 99V98H1063.19L1062.9 98.4785L1063.75 99ZM1085.95 99L1086.8 99.5214L1087.73 98H1085.95V99ZM996.85 244.8L995.912 244.453L997.703 245.321L996.85 244.8ZM1001.95 231H1002.95L1001.01 230.653L1001.95 231ZM1001.95 309V310H1002.95V309H1001.95ZM981.05 309V231H979.05V309H981.05ZM979.112 231.347L984.212 245.147L986.088 244.453L980.988 230.653L979.112 231.347ZM986.003 244.279L896.903 98.4785L895.197 99.5214L984.297 245.321L986.003 244.279ZM896.05 100H919.75V98H896.05V100ZM918.897 99.5215L997.197 227.622L998.903 226.578L920.603 98.4785L918.897 99.5215ZM998.05 226.1H985.45V228.1H998.05V226.1ZM986.303 227.622L1064.6 99.5215L1062.9 98.4785L984.597 226.578L986.303 227.622ZM1063.75 100H1085.95V98H1063.75V100ZM1085.1 98.4785L995.997 244.279L997.703 245.321L1086.8 99.5214L1085.1 98.4785ZM997.788 245.147L1002.89 231.347L1001.01 230.653L995.912 244.453L997.788 245.147ZM1000.95 231V309H1002.95V231H1000.95ZM1001.95 308H980.05V310H1001.95V308ZM1115.99 309H1114.99V310H1115.99V309ZM1115.99 99V98H1114.99V99H1115.99ZM1260.29 112.5L1259.81 113.381L1259.82 113.385L1259.83 113.388L1260.29 112.5ZM1299.89 149.4L1300.74 148.889L1300.74 148.889L1299.89 149.4ZM1299.89 258.6L1300.74 259.111L1300.74 259.111L1299.89 258.6ZM1260.29 295.8L1260.75 296.686L1260.75 296.684L1260.29 295.8ZM1138.19 289.8H1137.19V290.8H1138.19V289.8ZM1248.59 279L1249.05 279.884L1249.06 279.881L1248.59 279ZM1280.69 248.7L1281.55 249.211L1281.55 249.205L1280.69 248.7ZM1280.69 159.3L1281.55 158.789L1281.55 158.789L1280.69 159.3ZM1248.59 129.3L1248.11 130.178L1248.11 130.183L1248.12 130.187L1248.59 129.3ZM1138.19 118.2V117.2H1137.19V118.2H1138.19ZM1116.99 309V99H1114.99V309H1116.99ZM1115.99 100H1201.49V98H1115.99V100ZM1201.49 100C1223.75 100 1243.18 104.472 1259.81 113.381L1260.76 111.619C1243.79 102.528 1224.02 98 1201.49 98V100ZM1259.83 113.388C1276.67 122.106 1289.73 134.279 1299.03 149.911L1300.74 148.889C1291.25 132.921 1277.9 120.494 1260.74 111.612L1259.83 113.388ZM1299.03 149.911C1308.32 165.539 1312.99 183.558 1312.99 204H1314.99C1314.99 183.242 1310.25 164.861 1300.74 148.889L1299.03 149.911ZM1312.99 204C1312.99 224.442 1308.32 242.461 1299.03 258.089L1300.74 259.111C1310.25 243.139 1314.99 224.758 1314.99 204H1312.99ZM1299.03 258.089C1289.72 273.723 1276.66 285.998 1259.82 294.916L1260.75 296.684C1277.91 287.602 1291.25 275.077 1300.74 259.111L1299.03 258.089ZM1259.82 294.914C1243.19 303.627 1223.75 308 1201.49 308V310C1224.02 310 1243.78 305.573 1260.75 296.686L1259.82 294.914ZM1201.49 308H1115.99V310H1201.49V308ZM1138.19 290.8H1200.29V288.8H1138.19V290.8ZM1200.29 290.8C1219.01 290.8 1235.28 287.174 1249.05 279.884L1248.12 278.116C1234.69 285.226 1218.76 288.8 1200.29 288.8V290.8ZM1249.06 279.881C1263.01 272.4 1273.85 262.175 1281.55 249.211L1279.83 248.189C1272.32 260.825 1261.76 270.8 1248.11 278.119L1249.06 279.881ZM1281.55 249.205C1289.25 236.034 1293.09 220.956 1293.09 204H1291.09C1291.09 220.644 1287.32 235.366 1279.82 248.195L1281.55 249.205ZM1293.09 204C1293.09 186.846 1289.25 171.765 1281.55 158.789L1279.83 159.811C1287.32 172.435 1291.09 187.154 1291.09 204H1293.09ZM1281.55 158.789C1273.85 145.822 1263 135.695 1249.05 128.413L1248.12 130.187C1261.77 137.305 1272.32 147.178 1279.83 159.811L1281.55 158.789ZM1249.06 128.422C1235.29 120.927 1219.02 117.2 1200.29 117.2V119.2C1218.75 119.2 1234.68 122.873 1248.11 130.178L1249.06 128.422ZM1200.29 117.2H1138.19V119.2H1200.29V117.2ZM1137.19 118.2V289.8H1139.19V118.2H1137.19Z" fill="white" mask="url(#path-2-outside-1_24_9)"/>
<defs>
<linearGradient id="paint0_linear_24_9" x1="48" y1="43" x2="364" y2="359" gradientUnits="userSpaceOnUse">
<stop stop-color="#FFA800"/>
<stop offset="1" stop-color="#F7766B"/>
</linearGradient>
<linearGradient id="paint1_linear_24_9" x1="48" y1="43" x2="364" y2="359" gradientUnits="userSpaceOnUse">
<stop stop-color="#FFA800"/>
<stop offset="1" stop-color="#F7766B"/>
</linearGradient>
<linearGradient id="paint2_linear_24_9" x1="48" y1="43" x2="364" y2="359" gradientUnits="userSpaceOnUse">
<stop stop-color="#FFA800"/>
<stop offset="1" stop-color="#F7766B"/>
</linearGradient>
</defs>
</svg>
