<svg width="320" height="401" viewBox="0 0 320 401" fill="none" xmlns="http://www.w3.org/2000/svg">
<g clip-path="url(#clip0_16_2)">
<rect y="0.0105591" width="320" height="400" rx="20" fill="url(#paint0_linear_16_2)"/>
<path d="M138.987 26.5439C144.107 29.1039 143.48 20.9439 147.947 19.7572C150.133 21.9972 151.987 24.5439 154.107 26.8372C153.947 27.5572 153.627 28.9972 153.467 29.7172C150.693 28.2106 149.387 25.1839 147.453 22.8239C144.893 24.2239 143.76 26.8106 144.107 29.6772C139.133 27.4239 136.36 31.5039 132.147 33.1706C131.587 29.7306 129.44 28.7306 126.413 30.3839C128.413 26.1572 134.88 27.5439 138.987 26.5439Z" fill="#B1AEAB"/>
<path d="M144.107 29.6772C143.76 26.8105 144.893 24.2239 147.453 22.8239C149.387 25.1839 150.693 28.2105 153.467 29.7172C151.16 38.9972 148.253 24.7572 144.107 29.6772Z" fill="#6C6766"/>
<path d="M155.067 24.2239C160.827 26.5972 168.72 23.3305 171.573 31.1705C170.813 32.0505 170.067 32.9439 169.333 33.8372C166.147 32.8639 166.293 26.0505 162.427 29.1705C157.853 33.1572 158.12 22.9572 154.107 26.8372C154.347 26.1839 154.827 24.8772 155.067 24.2239Z" fill="#B9B4B2"/>
<path d="M154.107 26.8372C158.12 22.9572 157.853 33.1572 162.427 29.1706C166.293 26.0506 166.147 32.8639 169.333 33.8372C164.84 36.8106 161.56 36.7839 164.027 30.6639C160.347 35.3306 156.32 34.9039 153.467 29.7172C153.627 28.9972 153.947 27.5572 154.107 26.8372Z" fill="#6A6463"/>
<path d="M132.147 33.1705C136.36 31.5039 139.133 27.4239 144.107 29.6772C142.053 33.2772 132.013 40.1839 130.84 33.5705L132.147 33.1705Z" fill="#68615F"/>
<path d="M144.107 29.6772C148.253 24.7572 151.16 38.9972 153.467 29.7172C156.32 34.9039 160.347 35.3306 164.027 30.6639C161.56 36.7839 164.84 36.8106 169.333 33.8372C177.907 33.1439 186.467 34.3572 195.04 34.1439C198.747 34.8106 202.013 36.7039 205.2 38.6239C208.907 42.6639 212.4 48.1039 218.747 46.7306C231.627 51.0106 239.16 65.9439 237.12 78.5439C232.333 87.2239 242.213 96.1172 244.613 104.317C246.12 112.157 240.493 118.957 242.52 126.717C243.44 132.744 238.427 138.091 240.12 144.064C237.013 147.237 236.253 151.731 235.867 155.984C234.68 159.211 233.493 162.477 231.44 165.277C228.493 169.144 223.653 173.451 225.293 165.331C230.027 150.971 229.133 136.077 225.227 121.637C225.067 113.997 223.747 105.051 215.907 101.491C204.88 97.5172 195.093 89.7439 182.76 90.3706C163.213 82.4906 134.48 82.6639 119.76 99.9306C116.813 104.491 113.173 109.157 113.32 114.877C110.947 123.744 107.627 132.277 104.733 140.944C102.52 144.237 105.387 156.157 100.093 151.824C99.6932 151.571 98.9066 151.064 98.5066 150.811C98.4666 150.197 98.3999 148.997 98.3599 148.384C98.5466 144.077 98.6799 139.597 95.8666 136.104C98.3866 132.197 96.0132 127.971 94.4666 124.131C96.5199 117.197 92.8399 108.504 99.3466 103.317C98.0532 101.917 96.7599 100.504 95.6132 98.9839C99.9866 99.1706 97.4266 94.1972 97.9732 91.5439C100.587 92.5039 105.947 91.3439 102.96 87.8772C102.2 86.6106 101.453 85.3306 100.747 84.0239C105.027 81.3706 110.4 78.5439 105.373 73.3839C106.467 67.0106 112.16 63.2372 115.68 58.3039C115.573 53.4772 114.027 44.9039 122.107 45.9039C128.68 45.6106 124.813 34.8772 130.84 33.5706C132.013 40.1839 142.053 33.2772 144.107 29.6772Z" fill="#2C2A2D"/>
<path d="M171.573 31.1706C173.093 26.9572 177.947 27.2506 180.213 30.5972C177.333 30.9572 174.453 31.1439 171.573 31.1706Z" fill="#BAB8B7"/>
<path d="M126.413 30.3839C129.44 28.7306 131.587 29.7306 132.147 33.1706L130.84 33.5705C124.813 34.8772 128.68 45.6105 122.107 45.9039C114.027 44.9039 115.573 53.4772 115.68 58.3039C112.16 63.2372 106.467 67.0105 105.373 73.3839C104.76 72.0239 104.16 70.6639 103.6 69.2772C108.667 61.2239 114.64 54.9439 114.32 44.9839C121.853 46.5172 126.093 39.5439 125.307 33.1839C125.573 32.4905 126.133 31.0906 126.413 30.3839Z" fill="#6D6A68"/>
<path d="M181.2 30.3972C184.533 28.4639 188.693 29.8906 191.013 32.7172C187.64 32.4372 184.453 31.2106 181.2 30.3972Z" fill="#ACAAA9"/>
<path d="M171.573 31.1706C174.453 31.1439 177.333 30.9572 180.213 30.5972L181.2 30.3972C184.453 31.2106 187.64 32.4372 191.013 32.7172L191.88 32.8505C192.68 33.1705 194.253 33.8239 195.04 34.1439C186.467 34.3572 177.907 33.1439 169.333 33.8372C170.067 32.9439 170.813 32.0506 171.573 31.1706Z" fill="#6F6B69"/>
<path d="M191.88 32.8506C199.773 33.4639 209.453 34.3839 214.48 41.4506C211.387 40.4906 208.333 39.4239 205.2 38.6239C202.013 36.7039 198.747 34.8106 195.04 34.1439C194.253 33.8239 192.68 33.1706 191.88 32.8506Z" fill="#ABA8A6"/>
<path d="M113.693 42.0372C119.227 42.3706 124.213 38.6639 125.307 33.1839C126.093 39.5439 121.853 46.5172 114.32 44.9839C114.64 54.9439 108.667 61.2239 103.6 69.2772C103.293 69.7439 102.68 70.6506 102.387 71.1039C97.36 67.6506 104.2 64.1306 105.773 60.6506C106.68 57.5839 108.08 54.8239 111.387 53.9306C111.84 49.9439 111.213 45.5039 113.693 42.0372Z" fill="#BCBAB9"/>
<path d="M205.2 38.6239C208.333 39.4239 211.387 40.4906 214.48 41.4506C215.44 43.5439 216.907 45.3306 218.747 46.7306C212.4 48.1039 208.907 42.6639 205.2 38.6239Z" fill="#54504F"/>
<path d="M214.48 41.4506C221.2 45.7839 228.147 49.9172 234.227 55.1306C239.88 69.1306 242.52 84.0772 245.573 98.7706C239.347 94.0906 242.173 84.3706 237.12 78.5439C239.16 65.9439 231.627 51.0106 218.747 46.7306C216.907 45.3306 215.44 43.5439 214.48 41.4506Z" fill="#A19E9E"/>
<path d="M102.387 71.1039C102.68 70.6506 103.293 69.7439 103.6 69.2772C104.16 70.6639 104.76 72.0239 105.373 73.3839C104.333 77.0506 98.9199 80.1172 100.747 84.0239C101.453 85.3306 102.2 86.6106 102.96 87.8772C101.253 89.0372 99.48 90.1306 97.9733 91.5439C96.28 92.5572 95.9466 94.5572 95.3199 96.2639C94.0533 93.5439 92.3599 90.3306 96.7466 89.9439C99.7199 84.0239 99.5866 77.0772 102.387 71.1039Z" fill="#A9A8A9"/>
<path d="M105.373 73.3839C110.4 78.5439 105.027 81.3705 100.747 84.0239C98.9201 80.1172 104.333 77.0505 105.373 73.3839Z" fill="#545454"/>
<path d="M244.613 104.317C242.213 96.1172 232.333 87.2239 237.12 78.5439C242.173 84.3706 239.347 94.0905 245.573 98.7705C245.307 100.637 244.96 102.477 244.613 104.317Z" fill="#5B5755"/>
<path d="M119.76 99.9306C134.48 82.6639 163.213 82.4905 182.76 90.3705C195.093 89.7439 204.88 97.5172 215.907 101.491C223.747 105.051 225.067 113.997 225.227 121.637C224.413 119.731 223.627 117.824 222.733 115.957C210.587 97.6772 186.067 97.0372 166.973 90.2106C150.627 84.7572 134.56 94.0239 119.76 99.9306Z" fill="#4C3834"/>
<path d="M102.96 87.8772C105.947 91.3439 100.587 92.5039 97.9734 91.5439C99.4801 90.1306 101.253 89.0372 102.96 87.8772Z" fill="#6C6A6D"/>
<path d="M119.76 99.9306C134.56 94.0239 150.627 84.7572 166.973 90.2106C186.067 97.0372 210.587 97.6772 222.733 115.957C213.947 113.011 206.507 107.571 199.32 101.864C194.467 98.7039 190.947 105.131 186.453 103.077C178.573 100.317 172.107 94.1972 163.88 92.2106C159.32 92.3706 155.307 95.1972 150.827 95.5839C140.347 92.9839 129.733 98.5039 121.093 103.731C118.147 107.171 115.733 111.051 113.32 114.877C113.173 109.157 116.813 104.491 119.76 99.9306Z" fill="#6B4B41"/>
<path d="M95.3201 96.2639C95.9467 94.5572 96.2801 92.5572 97.9734 91.5439C97.4267 94.1972 99.9867 99.1706 95.6134 98.9839C95.5334 98.3039 95.3867 96.9439 95.3201 96.2639Z" fill="#6D6C6F"/>
<path d="M150.827 95.5839C155.307 95.1972 159.32 92.3706 163.88 92.2106C172.107 94.1972 178.573 100.317 186.453 103.077C190.947 105.131 194.467 98.7039 199.32 101.864C206.507 107.571 213.947 113.011 222.733 115.957C223.627 117.824 224.413 119.731 225.227 121.637C229.133 136.077 230.027 150.971 225.293 165.331C225.36 160.117 226.573 153.637 222.373 149.517C217.787 148.011 219.573 155.664 218.187 158.264C210.333 166.837 195.28 165.811 187.36 157.877C189.467 157.317 191.587 156.771 193.787 156.717C198.253 160.824 202.613 157.504 205.067 153.224C205.733 158.277 209.16 158.784 213.467 157.064C210.12 149.704 200.493 149.597 193.613 149.251C185.067 143.197 201.813 137.464 207.12 135.091C214.253 131.677 216.36 144.517 221.427 141.131C219.853 136.864 217.013 133.157 214.187 129.651C208.013 129.291 201.84 129.224 195.667 129.024C203.16 127.011 211.427 128.997 218.707 126.624C216.04 117.677 204.933 117.917 197.507 117.037C184.653 112.464 175.72 99.3572 161.747 97.3972C158.827 108.411 145.04 101.984 137.173 105.331C131.493 108.971 127.12 100.077 121.093 103.731C129.733 98.5039 140.347 92.9839 150.827 95.5839Z" fill="#845F4F"/>
<path d="M161.747 97.3972C175.72 99.3572 184.653 112.464 197.507 117.037C204.933 117.917 216.04 117.677 218.707 126.624C211.427 128.997 203.16 127.011 195.667 129.024C191.747 129.504 188.013 130.811 184.253 131.984C179.467 132.771 176.36 137.011 171.747 138.171C165.893 137.691 161.893 132.211 155.973 131.957C141.827 128.837 124.413 119.037 113.987 134.544C113.84 140.944 118.4 147.264 117.667 154.371C126.307 159.637 140.507 165.917 148.293 156.051C151.693 155.731 154.147 158.757 157.173 159.851C159.52 158.011 160.053 155.184 160.12 152.357C162.813 149.677 167.787 144.864 171.32 148.611C173.32 151.437 174.733 154.704 177.12 157.251C179.76 155.077 182.44 155.011 185.107 157.131C185.667 157.317 186.8 157.691 187.36 157.877C195.28 165.811 210.333 166.837 218.187 158.264C219.573 155.664 217.787 148.011 222.373 149.517C226.573 153.637 225.36 160.117 225.293 165.331C224.747 168.824 224.213 172.344 223.773 175.851C217.333 185.584 207.427 171.104 199.693 174.184C198.533 183.677 207.053 198.397 195.853 204.384C193.64 203.851 191.427 203.317 189.213 202.811C186.92 201.171 185.147 198.984 185.213 196.037C185.053 192.437 180.8 191.277 178.133 189.771C168.133 190.717 157.533 188.184 148.093 192.544C148.36 193.917 148.733 195.277 149.2 196.597C147.88 202.957 140.12 201.184 135.507 203.357C130.12 206.077 130.547 198.597 129.773 195.224C128.053 187.637 118.747 186.464 117.08 178.837C112.16 179.117 113.92 183.544 114.427 186.904C105.88 179.131 108.853 164.891 107.267 154.277C106.773 149.757 106.013 145.304 104.733 140.944C107.627 132.277 110.947 123.744 113.32 114.877C115.733 111.051 118.147 107.171 121.093 103.731C127.12 100.077 131.493 108.971 137.173 105.331C145.04 101.984 158.827 108.411 161.747 97.3972ZM165.867 104.557C160.2 108.451 153.867 112.277 146.747 109.757C151.2 119.464 133.92 116.437 135.52 123.091C149.413 123.464 161.2 135.717 175.347 132.731C182.747 127.717 194.107 130.424 199.973 123.011C192.667 119.837 184.987 117.824 177.267 116.064C171.333 114.811 171.627 103.931 165.867 104.557ZM166.907 150.771C160.947 161.917 158.12 175.757 150.587 185.264C160.427 185.704 170.333 185.437 180.08 183.864C180.4 178.584 175.653 174.757 175.453 169.651C174.293 163.824 173.52 152.077 166.907 150.771Z" fill="#9D7560"/>
<path d="M95.0134 103.757C95.2001 101.757 91.5467 97.9306 95.6134 98.9839C96.7601 100.504 98.0534 101.917 99.3467 103.317C92.8401 108.504 96.5201 117.197 94.4667 124.131C91.6534 117.597 94.2134 110.464 95.0134 103.757Z" fill="#807F81"/>
<path d="M245.573 98.7706C245.133 113.771 245.627 129.851 240.12 144.064C238.427 138.091 243.44 132.744 242.52 126.717C240.493 118.957 246.12 112.157 244.613 104.317C244.96 102.477 245.307 100.637 245.573 98.7706Z" fill="#9C9898"/>
<path d="M165.867 104.557C171.627 103.931 171.333 114.811 177.267 116.064C184.987 117.824 192.667 119.837 199.973 123.011C194.107 130.424 182.747 127.717 175.347 132.731C161.2 135.717 149.413 123.464 135.52 123.091C133.92 116.437 151.2 119.464 146.747 109.757C153.867 112.277 160.2 108.451 165.867 104.557Z" fill="#A9836F"/>
<path d="M94.4666 124.131C96.0132 127.971 98.3866 132.197 95.8666 136.104C95.0266 132.171 94.9199 128.104 94.4666 124.131Z" fill="#808082"/>
<path d="M113.987 134.544C124.413 119.037 141.827 128.837 155.973 131.957C160.48 137.877 162.12 145.144 160.12 152.357C157.507 152.744 154.88 152.571 152.267 152.451C147.853 151.211 143.973 148.704 139.787 146.904C150.267 139.117 133.773 138.144 127.373 136.837C124.04 132.824 115.507 139.824 113.987 134.544Z" fill="#66463C"/>
<path d="M184.253 131.984C188.013 130.811 191.747 129.504 195.667 129.024C201.84 129.224 208.013 129.291 214.187 129.651C217.013 133.157 219.853 136.864 221.427 141.131C216.36 144.517 214.253 131.677 207.12 135.091C201.813 137.464 185.067 143.197 193.613 149.251C188.72 151.424 190.147 154.117 193.787 156.717C191.587 156.771 189.467 157.317 187.36 157.877C186.8 157.691 185.667 157.317 185.107 157.131C185.987 150.597 183.173 150.117 177.307 151.971C175.733 144.251 181.92 138.717 184.253 131.984Z" fill="#64433B"/>
<path d="M155.973 131.957C161.893 132.211 165.893 137.691 171.747 138.171C176.36 137.011 179.467 132.771 184.253 131.984C181.92 138.717 175.733 144.251 177.307 151.971C183.173 150.117 185.987 150.597 185.107 157.131C182.44 155.011 179.76 155.077 177.12 157.251C174.733 154.704 173.32 151.437 171.32 148.611C167.787 144.864 162.813 149.677 160.12 152.357C162.12 145.144 160.48 137.877 155.973 131.957Z" fill="#825948"/>
<path d="M117.667 154.371C118.4 147.264 113.84 140.944 113.987 134.544C115.507 139.824 124.04 132.824 127.373 136.837C133.773 138.144 150.267 139.117 139.787 146.904C136.173 144.931 116.693 149.331 125.387 154.624C131.227 148.451 136.267 160.211 141.92 154.064C142.653 146.224 150.693 159.424 152.267 152.451C154.88 152.571 157.507 152.744 160.12 152.357C160.053 155.184 159.52 158.011 157.173 159.851C154.147 158.757 151.693 155.731 148.293 156.051C140.507 165.917 126.307 159.637 117.667 154.371Z" fill="#7F5C4D"/>
<path d="M95.8667 136.104C98.68 139.597 98.5467 144.077 98.36 148.384C97.36 144.317 96.32 140.277 95.8667 136.104Z" fill="#807E80"/>
<path d="M100.093 151.824C105.387 156.157 102.52 144.237 104.733 140.944C106.013 145.304 106.773 149.757 107.267 154.277C106.987 158.917 106.867 163.584 106.467 168.237C102.027 165.451 101.853 160.531 100.947 155.957C100.733 154.931 100.307 152.864 100.093 151.824Z" fill="#51423B"/>
<path d="M235.867 155.984C236.253 151.731 237.013 147.237 240.12 144.064C240.027 148.411 238.187 152.384 235.867 155.984Z" fill="#9B979A"/>
<path d="M125.387 154.624C116.693 149.331 136.173 144.931 139.787 146.904C143.973 148.704 147.853 151.211 152.267 152.451C150.693 159.424 142.653 146.224 141.92 154.064C136.267 160.211 131.227 148.451 125.387 154.624Z" fill="#48302E"/>
<path d="M193.613 149.251C200.493 149.597 210.12 149.704 213.467 157.064C209.16 158.784 205.733 158.277 205.067 153.224C202.613 157.504 198.253 160.824 193.787 156.717C190.147 154.117 188.72 151.424 193.613 149.251Z" fill="#432F2C"/>
<path d="M98.5066 150.811C98.9066 151.064 99.6933 151.571 100.093 151.824C100.307 152.864 100.733 154.931 100.947 155.957C100.653 156.597 100.08 157.891 99.7999 158.544C99.4666 156.611 98.8266 152.744 98.5066 150.811Z" fill="#BAB5B1"/>
<path d="M166.907 150.771C173.52 152.077 174.293 163.824 175.453 169.651C175.653 174.757 180.4 178.584 180.08 183.864C170.333 185.437 160.427 185.704 150.587 185.264C158.12 175.757 160.947 161.917 166.907 150.771Z" fill="#B3856E"/>
<path d="M107.267 154.277C108.853 164.891 105.88 179.131 114.427 186.904C113.92 183.544 112.16 179.117 117.08 178.837C118.747 186.464 128.053 187.637 129.773 195.224C130.547 198.597 130.12 206.077 135.507 203.357C140.12 201.184 147.88 202.957 149.2 196.597C161.333 198.677 173.907 204.144 185.213 196.037C185.147 198.984 186.92 201.171 189.213 202.811C188.147 205.277 188.453 209.037 185.293 209.851C172.547 202.091 156.227 205.891 143.16 210.571C143.68 204.597 138.613 201.837 134.68 206.704C132.053 208.477 130.08 211.397 126.867 212.117C124.107 209.304 124.773 202.717 121.56 201.544C118.96 207.077 121.547 214.357 118.107 220.237C116.427 215.371 115.427 210.291 114.48 205.251C115.747 202.437 114.147 198.024 110.813 200.891L109.64 201.264C103.067 203.451 113.013 195.064 106.213 198.077C99.88 199.077 105.627 193.597 107.427 191.371C104.627 187.851 101.6 184.531 97.5867 182.371C98.7467 179.811 100.507 177.557 101.4 174.877C97.6267 170.251 95.56 177.891 91.48 176.731C90.8534 172.051 87.7467 163.624 94.24 162.317C96.2934 161.237 100.173 161.811 99.8 158.544C100.08 157.891 100.653 156.597 100.947 155.957C101.853 160.531 102.027 165.451 106.467 168.237C106.867 163.584 106.987 158.917 107.267 154.277Z" fill="#8D6755"/>
<path d="M223.773 175.851C224.213 172.344 224.747 168.824 225.293 165.331C223.653 173.451 228.493 169.144 231.44 165.277C231.92 165.917 232.867 167.197 233.333 167.837C235.387 169.944 237.76 171.691 240.027 173.544C240.093 177.091 240.373 180.877 238.8 184.144C236.707 186.304 234.24 185.931 231.933 184.371C230.32 188.571 230 193.877 224.947 195.371C223.907 199.197 223.853 203.211 223.16 207.117C220.52 208.704 218.52 205.011 216.493 203.811C213.947 193.304 225.187 186.211 223.773 175.851Z" fill="#825749"/>
<path d="M233.333 167.837C236.533 167.971 240.36 169.784 240.027 173.544C237.76 171.691 235.387 169.944 233.333 167.837Z" fill="#C0ADA1"/>
<path d="M91.48 176.731C95.56 177.891 97.6267 170.251 101.4 174.877C100.507 177.557 98.7466 179.811 97.5866 182.371C101.6 184.531 104.627 187.851 107.427 191.371C105.627 193.597 99.88 199.077 106.213 198.077C113.013 195.064 103.067 203.451 109.64 201.264C96 205.997 93.7866 185.997 91.48 176.731Z" fill="#AA7F6B"/>
<path d="M199.693 174.184C207.427 171.104 217.333 185.584 223.773 175.851C225.187 186.211 213.947 193.304 216.493 203.811C214.92 205.344 214.24 207.464 213.44 209.437C210.547 203.971 217.733 196.197 210.84 193.304C205.64 198.571 207.32 218.104 198.653 208.077C197.707 206.864 196.787 205.611 195.853 204.384C207.053 198.397 198.533 183.677 199.693 174.184Z" fill="#936A57"/>
<path d="M231.933 184.371C234.24 185.931 236.707 186.304 238.8 184.144C233.68 191.877 233.493 204.091 223.16 207.117C223.853 203.211 223.907 199.197 224.947 195.371C230 193.877 230.32 188.571 231.933 184.371Z" fill="#A37B6B"/>
<path d="M148.093 192.544C157.533 188.184 168.133 190.717 178.133 189.771C180.8 191.277 185.053 192.437 185.213 196.037C173.907 204.144 161.333 198.677 149.2 196.597C148.733 195.277 148.36 193.917 148.093 192.544Z" fill="#5D3B35"/>
<path d="M210.84 193.304C217.733 196.197 210.547 203.971 213.44 209.437C211.16 210.317 211.52 213.051 212.36 214.837C211.147 219.704 209.4 224.411 208.013 229.237C206.24 235.011 206.827 241.037 206.813 246.984C206.427 250.104 206.707 253.371 209.293 255.504C204.44 266.744 204.093 282.291 195.8 293.184C193.44 296.704 186.987 304.637 194.787 305.944C190.813 309.811 186.907 313.744 182.947 317.611C181.96 314.437 186.387 302.211 178.827 304.091C174.8 305.651 171.24 308.171 167.36 310.037C159.347 313.771 154.427 303.717 147.013 304.157C143.04 306.851 144.373 311.904 143.72 316.064C139.44 317.104 137.947 310.784 134.013 311.757C124.333 306.571 116.613 296.411 117.453 285.024C118.8 287.557 118.627 292.837 122.627 292.064C120.32 279.224 121.547 266.064 120.267 253.331C120.853 252.957 122.027 252.237 122.613 251.877C124.947 245.997 124.827 236.931 122.827 230.477C121.12 227.131 119.387 223.784 118.107 220.237C121.547 214.357 118.96 207.077 121.56 201.544C124.773 202.717 124.107 209.304 126.867 212.117C130.08 211.397 132.053 208.477 134.68 206.704C134.56 211.184 131.187 217.171 135.667 220.264C133.627 223.397 133.28 227.211 133.347 230.864C136.547 230.451 140.987 224.237 142.733 229.131C146.613 239.104 159.4 237.477 168.08 235.971C168.053 242.691 157.667 239.291 153.627 242.997C147.68 248.584 141.44 240.451 134.947 241.411C131.373 248.371 132.04 257.157 132.547 264.877C137.8 274.011 142.013 283.677 147.093 292.891C152.2 299.664 162.12 297.291 168.587 302.104C186.973 303.531 187.64 279.357 199.24 269.891C204.747 265.304 199 258.691 201.307 253.517C205.267 251.984 206.48 247.597 204.093 243.957C202.853 238.624 195.307 245.757 194.653 239.904C196.32 229.464 201.227 218.717 198.653 208.077C207.32 218.104 205.64 198.571 210.84 193.304Z" fill="#83614E"/>
<path d="M110.813 200.891C114.147 198.024 115.747 202.437 114.48 205.251C113.32 203.731 112.213 202.184 110.813 200.891Z" fill="#C3B4AC"/>
<path d="M189.213 202.811C191.427 203.317 193.64 203.851 195.853 204.384C196.787 205.611 197.707 206.864 198.653 208.077C201.227 218.717 196.32 229.464 194.653 239.904C195.307 245.757 202.853 238.624 204.093 243.957C206.48 247.597 205.267 251.984 201.307 253.517C199 258.691 204.747 265.304 199.24 269.891C187.64 279.357 186.973 303.531 168.587 302.104C162.12 297.291 152.2 299.664 147.093 292.891C142.013 283.677 137.8 274.011 132.547 264.877C132.04 257.157 131.373 248.371 134.947 241.411C141.44 240.451 147.68 248.584 153.627 242.997C157.667 239.291 168.053 242.691 168.08 235.971C159.4 237.477 146.613 239.104 142.733 229.131C140.987 224.237 136.547 230.451 133.347 230.864C133.28 227.211 133.627 223.397 135.667 220.264C139.6 218.304 143.573 216.344 147.787 215.104C157.36 222.624 174.387 227.131 183.147 216.091C187.64 216.411 191.733 218.357 195.853 220.024C198.48 217.131 197.133 212.864 197.333 209.277C192.92 208.557 189.187 213.797 185.293 209.851C188.453 209.037 188.147 205.277 189.213 202.811ZM161.6 224.664C158.52 224.584 152.427 224.757 153.36 229.251C154.88 235.651 163.667 232.517 167.987 233.571C172.6 233.824 184.187 237.531 179.893 226.997C175.133 222.931 167.387 225.984 161.6 224.664ZM188.48 233.771C186.333 238.157 178.427 235.824 178.667 241.184C182.56 241.211 187.04 243.597 190.693 241.451C194.68 239.797 193.28 231.224 188.48 233.771ZM168.56 241.997C162.64 242.091 157.053 243.624 151.987 246.677C147.72 250.011 141.253 243.571 137.507 248.171C141.24 256.251 144.947 264.264 147.133 273.011C156.573 275.211 166.093 276.877 175.72 274.811C181.88 281.664 169.293 287.237 170.587 294.877C172.787 291.677 175.187 288.757 178.24 286.317C181.08 272.864 187.053 260.291 193.24 248.077C184.587 247.437 177.6 238.944 168.56 241.997Z" fill="#795341"/>
<path d="M134.68 206.704C138.613 201.837 143.68 204.597 143.16 210.571C156.227 205.891 172.547 202.091 185.293 209.851C189.187 213.797 192.92 208.557 197.333 209.277C197.133 212.864 198.48 217.131 195.853 220.024C191.733 218.357 187.64 216.411 183.147 216.091C171.467 214.477 159.52 213.877 147.787 215.104C143.573 216.344 139.6 218.304 135.667 220.264C131.187 217.171 134.56 211.184 134.68 206.704Z" fill="#6A423A"/>
<path d="M212.36 214.837C211.52 213.051 211.16 210.317 213.44 209.437C213.947 211.317 213.733 213.371 212.36 214.837Z" fill="#A28F86"/>
<path d="M147.787 215.104C159.52 213.877 171.467 214.477 183.147 216.091C174.387 227.131 157.36 222.624 147.787 215.104Z" fill="#AE7370"/>
<path d="M161.6 224.664C167.387 225.984 175.133 222.931 179.893 226.997C184.187 237.531 172.6 233.824 167.987 233.571C163.667 232.517 154.88 235.651 153.36 229.251C152.427 224.757 158.52 224.584 161.6 224.664Z" fill="#633C34"/>
<path d="M206.813 246.984C206.827 241.037 206.24 235.011 208.013 229.237C207.8 235.157 207.747 241.104 206.813 246.984Z" fill="#B9ADA6"/>
<path d="M122.827 230.477C124.827 236.931 124.947 245.997 122.613 251.877C122.773 244.744 122.773 237.597 122.827 230.477Z" fill="#A59891"/>
<path d="M188.48 233.771C193.28 231.224 194.68 239.797 190.693 241.451C187.04 243.597 182.56 241.211 178.667 241.184C178.427 235.824 186.333 238.157 188.48 233.771Z" fill="#7B5A4E"/>
<path d="M168.56 241.997C177.6 238.944 184.587 247.437 193.24 248.077C187.053 260.291 181.08 272.864 178.24 286.317C175.187 288.757 172.787 291.677 170.587 294.877C169.293 287.237 181.88 281.664 175.72 274.811C166.093 276.877 156.573 275.211 147.133 273.011C144.947 264.264 141.24 256.251 137.507 248.171C141.253 243.571 147.72 250.011 151.987 246.677C157.053 243.624 162.64 242.091 168.56 241.997ZM167.2 244.571C159.56 246.371 153.16 251.331 145.2 252.251C147.04 260.211 154.387 264.931 161.44 267.997C171.587 267.664 179.987 260.037 185.333 251.971C182.307 245.864 173.907 242.291 167.2 244.571Z" fill="#6B4637"/>
<path d="M167.2 244.571C173.907 242.291 182.307 245.864 185.333 251.971C179.987 260.037 171.587 267.664 161.44 267.997C154.387 264.931 147.04 260.211 145.2 252.251C153.16 251.331 159.56 246.371 167.2 244.571Z" fill="#55382E"/>
<path d="M118.373 254.411C118.84 254.144 119.787 253.597 120.267 253.331C121.547 266.064 120.32 279.224 122.627 292.064C118.627 292.837 118.8 287.557 117.453 285.024C116.813 274.851 114.68 264.251 118.373 254.411Z" fill="#56403A"/>
<path d="M105.173 269.117C108.44 263.371 112.307 257.544 118.373 254.411C114.68 264.251 116.813 274.851 117.453 285.024C116.613 296.411 124.333 306.571 134.013 311.757C135.907 317.517 140.493 321.744 145.227 325.304C148.853 328.011 152.6 330.571 156.173 333.371C140.96 332.037 123 330.104 110.707 341.051C103.533 323.984 97.4401 305.917 98.7468 287.077C106.64 284.704 105.307 275.664 105.173 269.117Z" fill="#756866"/>
<path d="M195.8 293.184C204.093 282.291 204.44 266.744 209.293 255.504C210.773 256.851 212.253 258.197 213.627 259.664C210.413 261.851 209.987 265.597 210.12 269.171C208.867 282.037 206.227 297.971 194.787 305.944C186.987 304.637 193.44 296.704 195.8 293.184Z" fill="#6A5349"/>
<path d="M213.627 259.664C219.147 265.891 220.187 274.704 221.36 282.597C226.947 304.717 217.667 326.144 206.307 344.251C196.44 332.304 180.973 330.344 166.427 331.731C171.12 327.891 176.2 324.464 180.493 320.157C181.333 319.331 182.147 318.477 182.947 317.611C186.907 313.744 190.813 309.811 194.787 305.944C206.227 297.971 208.867 282.037 210.12 269.171C209.987 265.597 210.413 261.851 213.627 259.664Z" fill="#716563"/>
<path d="M98.5601 281.144C100.773 277.144 102.84 273.051 105.173 269.117C105.307 275.664 106.64 284.704 98.7467 287.077C98.6801 285.091 98.6134 283.117 98.5601 281.144Z" fill="#8F8380"/>
<path d="M94.48 282.277C95.8267 281.864 97.1867 281.477 98.56 281.144C98.6133 283.117 98.68 285.091 98.7467 287.077C97.44 305.917 103.533 323.984 110.707 341.051C110.053 341.184 108.733 341.477 108.067 341.611C104.08 334.237 101.28 326.344 98.8667 318.344C97.2667 311.877 95.08 305.571 94.2667 298.944C92.0667 294.784 101.107 283.211 94.48 282.277Z" fill="#B0A6A5"/>
<path d="M74.7733 292.024C81 288.131 87.5067 284.611 94.48 282.277C101.107 283.211 92.0667 294.784 94.2667 298.944C90.72 287.544 92.4533 306.277 91.7467 310.531C78.48 324.384 64.96 338.024 53.7067 353.637C46.1467 357.544 37.08 359.317 33.4 350.437C31.2267 345.811 29.16 341.144 26.8667 336.584C26.44 334.291 25.16 330.104 22.36 332.837C21.9467 339.597 29.04 357.677 16.08 356.424C16.2133 363.597 18.5733 370.424 20.1333 377.357C17.4267 376.597 14.8533 375.451 12.12 374.757C10.0933 381.117 12.56 387.891 12.0667 394.424C8.41333 393.691 4.82667 392.731 1.17333 392.051C3.04 394.851 5.36 397.317 7.38667 400.011H0V346.891C7.29333 343.451 10.4933 336.011 15.5467 330.197C19.6533 325.677 12.8267 321.797 11.6933 317.371C15.8133 322.251 19.72 321.144 22.8667 315.971C27.6533 318.411 33.56 322.984 38.6533 317.291C43.1333 312.397 51.8267 314.464 55.28 308.757C58.2133 299.411 71.3333 301.211 74.7733 292.024Z" fill="#6D696C"/>
<path d="M221.36 282.597C222.627 283.291 223.907 283.971 225.187 284.677C223.667 292.837 226.08 301.251 225.493 309.504C224.96 310.691 224.467 311.917 224.04 313.157C222.68 323.837 216.84 333.051 211.547 342.157C210.68 344.357 208.173 343.864 206.307 344.251C217.667 326.144 226.947 304.717 221.36 282.597Z" fill="#B2AAA8"/>
<path d="M225.493 309.504C226.08 301.251 223.667 292.837 225.187 284.677C232.587 288.184 238.987 293.651 247 295.864C259.587 305.571 276.28 304.531 290.28 311.171C294.8 311.784 298.467 314.357 300.013 318.571C298.893 329.144 313.253 331.557 320 336.437V342.904C317.12 342.504 313.133 343.557 312.08 339.957C310.373 334.371 303.68 335.424 298.987 335.464C296.76 331.957 296.24 327.784 296.96 323.757C291.347 327.464 291.707 336.131 288.973 341.677C283.093 337.451 290.813 327.931 284.4 323.597C279.547 319.811 276.413 327.237 272.04 328.264C272.8 324.677 274.12 321.237 274.867 317.651C266.973 321.131 258.413 319.331 251.08 315.584C248.6 311.411 249.947 301.371 242.747 302.571C244.053 310.744 251.053 325.557 240.587 328.371C243.787 332.064 244.56 340.371 250.427 335.184C252.347 341.037 256.96 349.117 250.92 353.637C247.773 358.491 250.333 363.691 253.907 367.331C255.04 378.891 262.56 388.584 264.4 400.011H257.747C253.707 393.157 251.867 385.264 246.107 379.397C244.56 365.557 235.2 354.077 234.72 339.997C235.493 331.024 227.293 324.611 227.8 315.824C228.24 308.504 232.6 298.837 226.96 292.891C225.893 298.277 228.04 304.384 225.493 309.504Z" fill="#716C6E"/>
<path d="M27.8667 311.864C42.8 303.664 59.7333 300.131 74.7733 292.024C71.3333 301.211 58.2133 299.411 55.28 308.757C51.8267 314.464 43.1333 312.397 38.6533 317.291C33.56 322.984 27.6533 318.411 22.8667 315.971C19.72 321.144 15.8133 322.251 11.6933 317.371C12.8267 321.797 19.6533 325.677 15.5467 330.197C10.4933 336.011 7.29333 343.451 0 346.891V335.197C3.25333 330.264 7.53333 325.824 9.45333 320.157C10.36 311.211 20.8133 309.824 27.8667 311.864Z" fill="#878181"/>
<path d="M226.96 292.891C232.6 298.837 228.24 308.504 227.8 315.824C225.6 323.624 228.413 332.251 225.32 339.797C221.253 342.717 220.747 348.451 216.08 350.811C211.547 358.637 201.373 349.131 197.133 356.931C189.56 368.384 180.133 346.957 174.8 356.304C170.347 353.637 164.68 357.077 160.773 352.637C150.813 344.237 141.733 358.077 131.2 358.011C122.347 361.064 113.187 357.837 104.293 357.024C102.44 351.357 100.853 345.651 99.0533 339.984C98.7866 329.584 93.0932 320.571 91.7466 310.531C92.4532 306.277 90.7199 287.544 94.2666 298.944C95.0799 305.571 97.2666 311.877 98.8666 318.344C99.3866 326.397 99.4933 338.131 108.067 341.611C108.733 341.477 110.053 341.184 110.707 341.051C123 330.104 140.96 332.037 156.173 333.371C156.627 333.731 157.547 334.451 158.013 334.811C156.213 336.771 154.24 338.611 152.893 340.931C159.227 338.544 164.667 342.584 170.733 342.744C171.84 337.877 166.427 336.544 163.627 333.891C164.32 333.344 165.72 332.264 166.427 331.731C180.973 330.344 196.44 332.304 206.307 344.251C214.027 348.877 217.467 337.517 220.453 332.464C224.147 326.691 223.747 319.731 224.04 313.157C224.467 311.917 224.96 310.691 225.493 309.504C228.04 304.384 225.893 298.277 226.96 292.891Z" fill="#383135"/>
<path d="M242.747 302.571C249.947 301.371 248.6 311.411 251.08 315.584C258.413 319.331 266.973 321.131 274.867 317.651C274.12 321.237 272.8 324.677 272.04 328.264C276.413 327.237 279.547 319.811 284.4 323.597C290.813 327.931 283.093 337.451 288.973 341.677C291.707 336.131 291.347 327.464 296.96 323.757C296.24 327.784 296.76 331.957 298.987 335.464C303.68 335.424 310.373 334.371 312.08 339.957C313.133 343.557 317.12 342.504 320 342.904V358.677C309.92 362.917 314.827 349.917 317.467 345.211C312.853 344.424 308.96 351.584 305.16 346.877C302.36 344.917 297.96 340.277 294.92 344.251C290.48 356.997 287.533 370.597 290.907 384.291C289.947 389.531 289.333 394.837 288 400.011H264.4C262.56 388.584 255.04 378.891 253.907 367.331C250.333 363.691 247.773 358.491 250.92 353.637C256.96 349.117 252.347 341.037 250.427 335.184C244.56 340.371 243.787 332.064 240.587 328.371C251.053 325.557 244.053 310.744 242.747 302.571Z" fill="#676165"/>
<path d="M147.013 304.157C154.427 303.717 159.347 313.771 167.36 310.037C171.24 308.171 174.8 305.651 178.827 304.091C186.387 302.211 181.96 314.437 182.947 317.611C182.147 318.477 181.333 319.331 180.493 320.157C179.4 316.251 176.68 310.717 172.28 314.931C165.68 320.064 157.907 314.797 150.893 313.877C145.8 315.051 145.013 320.931 145.227 325.304C140.493 321.744 135.907 317.517 134.013 311.757C137.947 310.784 139.44 317.104 143.72 316.064C144.373 311.904 143.04 306.851 147.013 304.157Z" fill="#96735F"/>
<path d="M53.7066 353.637C64.9599 338.024 78.4799 324.384 91.7466 310.531C93.0932 320.571 98.7866 329.584 99.0532 339.984C92.0399 336.144 95.2132 328.744 93.2799 322.637C86.2132 325.291 86.0132 333.691 80.8266 338.211C70.4799 351.157 54.7332 363.051 57.3332 381.584C62.7999 387.037 59.5599 393.717 58.2932 400.011H45.5999C46.1199 392.397 41.2266 386.517 38.9066 379.864C41.4666 369.557 35.6932 360.157 33.3999 350.437C37.0799 359.317 46.1466 357.544 53.7066 353.637Z" fill="#5F5C60"/>
<path d="M150.893 313.877C157.907 314.797 165.68 320.064 172.28 314.931C176.68 310.717 179.4 316.251 180.493 320.157C176.2 324.464 171.12 327.891 166.427 331.731C165.72 332.264 164.32 333.344 163.627 333.891C161.76 334.237 159.893 334.531 158.013 334.811C157.547 334.451 156.627 333.731 156.173 333.371C152.6 330.571 148.853 328.011 145.227 325.304C145.013 320.931 145.8 315.051 150.893 313.877Z" fill="#AA8674"/>
<path d="M211.547 342.157C216.84 333.051 222.68 323.837 224.04 313.157C223.747 319.731 224.147 326.691 220.453 332.464C217.467 337.517 214.027 348.877 206.307 344.251C208.173 343.864 210.68 344.357 211.547 342.157Z" fill="#6C6565"/>
<path d="M225.32 339.797C228.413 332.251 225.6 323.624 227.8 315.824C227.293 324.611 235.493 331.024 234.72 339.997C235.2 354.077 244.56 365.557 246.107 379.397C251.867 385.264 253.707 393.157 257.747 400.011H198.707C192.427 387.277 190.827 370.331 198.733 357.997C204.627 361.464 209.027 367.531 215.88 369.197C220.773 362.464 219.947 353.144 225.493 346.837C227.587 344.877 225.52 342.104 225.32 339.797Z" fill="#676265"/>
<path d="M98.8667 318.344C101.28 326.344 104.08 334.237 108.067 341.611C99.4934 338.131 99.3867 326.397 98.8667 318.344Z" fill="#6B6361"/>
<path d="M300.013 318.571C306.893 322.357 314.52 325.197 320 331.037V336.437C313.253 331.557 298.893 329.144 300.013 318.571Z" fill="#888284"/>
<path d="M80.8266 338.211C86.0133 333.691 86.2133 325.291 93.28 322.637C95.2133 328.744 92.04 336.144 99.0533 339.984C97.84 345.517 93.32 352.451 99.0933 356.957C103.8 366.171 113.013 365.864 121.187 369.264C126.653 364.051 134.707 365.771 141.44 363.957C131.28 374.824 125.093 388.477 115.8 400.011H58.2933C59.56 393.717 62.8 387.037 57.3333 381.584C54.7333 363.051 70.4799 351.157 80.8266 338.211Z" fill="#686467"/>
<path d="M22.36 332.837C25.16 330.104 26.44 334.291 26.8667 336.584C25.72 351.171 37.6933 365.304 36.5467 380.611C34.08 382.197 40.2933 393.611 35.0267 391.664C29.2667 385.584 27.96 376.597 22.6133 370.384C24 379.157 27.68 387.717 33.6 394.397C35.1733 396.011 33.56 398.184 33.3467 400.011H7.38667C5.36001 397.317 3.04001 394.851 1.17334 392.051C4.82667 392.731 8.41334 393.691 12.0667 394.424C12.56 387.891 10.0933 381.117 12.12 374.757C14.8533 375.451 17.4267 376.597 20.1333 377.357C18.5733 370.424 16.2133 363.597 16.08 356.424C29.04 357.677 21.9467 339.597 22.36 332.837Z" fill="#5E5A5F"/>
<path d="M158.013 334.811C159.893 334.531 161.76 334.237 163.627 333.891C166.427 336.544 171.84 337.877 170.733 342.744C164.667 342.584 159.227 338.544 152.893 340.931C154.24 338.611 156.213 336.771 158.013 334.811Z" fill="#584D51"/>
<path d="M36.5466 380.611C37.6933 365.304 25.7199 351.171 26.8666 336.584C29.1599 341.144 31.2266 345.811 33.3999 350.437C35.6933 360.157 41.4666 369.557 38.9066 379.864C41.2266 386.517 46.12 392.397 45.6 400.011H33.3466C33.5599 398.184 35.1733 396.011 33.6 394.397C27.68 387.717 23.9999 379.157 22.6133 370.384C27.9599 376.597 29.2666 385.584 35.0266 391.664C40.2933 393.611 34.0799 382.197 36.5466 380.611Z" fill="#4F4C51"/>
<path d="M99.0532 339.984C100.853 345.651 102.44 351.357 104.293 357.024C113.187 357.837 122.347 361.064 131.2 358.011C141.733 358.077 150.813 344.237 160.773 352.637C164.68 357.077 170.347 353.637 174.8 356.304C183.467 367.237 185.2 381.331 181.093 394.757C178.093 386.131 168.72 380.971 160.987 387.664C152.72 395.091 173.253 402.517 173.907 393.264C176.76 394.611 175.733 397.651 174.96 400.011H115.8C125.093 388.477 131.28 374.824 141.44 363.957C134.707 365.771 126.653 364.051 121.187 369.264C113.013 365.864 103.8 366.171 99.0932 356.957C93.3199 352.451 97.8399 345.517 99.0532 339.984Z" fill="#605B5F"/>
<path d="M216.08 350.811C220.747 348.451 221.253 342.717 225.32 339.797C225.52 342.104 227.587 344.877 225.493 346.837C219.947 353.144 220.773 362.464 215.88 369.197C209.027 367.531 204.627 361.464 198.733 357.997C198.333 357.731 197.533 357.197 197.133 356.931C201.373 349.131 211.547 358.637 216.08 350.811Z" fill="#484344"/>
<path d="M294.92 344.251C297.96 340.277 302.36 344.917 305.16 346.877C308.96 351.584 312.853 344.424 317.467 345.211C314.827 349.917 309.92 362.917 320 358.677V400.011H298.36C302.84 393.131 311 387.344 310.773 378.491C306.72 382.197 303.12 386.344 299.613 390.571C295.813 389.517 298.173 385.571 298.76 382.984C301.187 372.197 308.067 363.291 312.147 353.171C300.973 359.064 299.173 374.917 290.907 384.291C287.533 370.597 290.48 356.997 294.92 344.251Z" fill="#5E585D"/>
<path d="M174.8 356.304C180.133 346.957 189.56 368.384 197.133 356.931C197.533 357.197 198.333 357.731 198.733 357.997C190.827 370.331 192.427 387.277 198.707 400.011H174.96C175.733 397.651 176.76 394.611 173.907 393.264C173.253 402.517 152.72 395.091 160.987 387.664C168.72 380.971 178.093 386.131 181.093 394.757C185.2 381.331 183.467 367.237 174.8 356.304Z" fill="#565155"/>
<path d="M290.907 384.291C299.173 374.917 300.973 359.064 312.147 353.171C308.067 363.291 301.187 372.197 298.76 382.984C298.173 385.571 295.813 389.517 299.613 390.571C303.12 386.344 306.72 382.197 310.773 378.491C311 387.344 302.84 393.131 298.36 400.011H288C289.333 394.837 289.947 389.531 290.907 384.291Z" fill="#4E494F"/>
</g>
<rect x="2.5" y="2.51056" width="315" height="395" rx="17.5" stroke="#FFA800" stroke-width="5"/>
<defs>
<linearGradient id="paint0_linear_16_2" x1="160" y1="0.0105591" x2="160" y2="400.011" gradientUnits="userSpaceOnUse">
<stop stop-color="#DD6A00"/>
<stop offset="1" stop-color="#FFA800"/>
</linearGradient>
<clipPath id="clip0_16_2">
<rect y="0.0105591" width="320" height="400" rx="20" fill="white"/>
</clipPath>
</defs>
</svg>
