<svg width="35" height="26" viewBox="0 0 35 26" fill="none" xmlns="http://www.w3.org/2000/svg">
<path d="M0 2.06775C0 1.46369 0.489694 0.973999 1.09375 0.973999H33.9062C34.5102 0.973999 35 1.46369 35 2.06775C35 2.6718 34.5102 3.1615 33.9062 3.1615H1.09375C0.489694 3.1615 0 2.6718 0 2.06775ZM0 13.0052C0 12.4012 0.489694 11.9115 1.09375 11.9115H33.9062C34.5102 11.9115 35 12.4012 35 13.0052C35 13.6093 34.5102 14.099 33.9062 14.099H1.09375C0.489694 14.099 0 13.6093 0 13.0052ZM1.09375 22.849C0.489694 22.849 0 23.3388 0 23.9427C0 24.5467 0.489694 25.0365 1.09375 25.0365H33.9062C34.5102 25.0365 35 24.5467 35 23.9427C35 23.3388 34.5102 22.849 33.9062 22.849H1.09375Z" fill="white"/>
</svg>
