<svg width="181" height="32" viewBox="0 0 181 32" fill="none" xmlns="http://www.w3.org/2000/svg">
<path d="M14.6357 0V29.8686M0 15.0339H15.9299M1.49343 1.49343H20.5681C25.7772 1.49343 30 5.71628 30 10.9254V20.5681C30 25.7772 25.7772 30 20.5681 30H1.49343V1.49343Z" stroke="#FFA800" stroke-width="2.98686"/>
<path d="M48 7.24233H50.1464V22.5442L49.9619 24.9676H48V7.24233ZM58.5821 18.6207V18.863C58.5821 19.7708 58.4744 20.6133 58.259 21.3902C58.0436 22.1596 57.7282 22.8288 57.3128 23.3982C56.8972 23.9675 56.3895 24.4098 55.7895 24.7253C55.1894 25.0407 54.5008 25.1984 53.7238 25.1984C52.9314 25.1984 52.2351 25.0638 51.6351 24.7945C51.0427 24.5176 50.5427 24.1214 50.1349 23.6059C49.7272 23.0905 49.4002 22.4673 49.154 21.7365C48.9155 21.0056 48.7501 20.1824 48.6578 19.2669V18.2052C48.7501 17.282 48.9155 16.455 49.154 15.7241C49.4002 14.9933 49.7272 14.3701 50.1349 13.8547C50.5427 13.3315 51.0427 12.9354 51.6351 12.6661C52.2275 12.3891 52.916 12.2506 53.7007 12.2506C54.4854 12.2506 55.1817 12.4045 55.7895 12.7122C56.3972 13.0123 56.905 13.4431 57.3128 14.0047C57.7282 14.5663 58.0436 15.2395 58.259 16.0242C58.4744 16.8012 58.5821 17.6667 58.5821 18.6207ZM56.4357 18.863V18.6207C56.4357 17.9975 56.378 17.4128 56.2626 16.8666C56.1472 16.3127 55.9625 15.828 55.7087 15.4126C55.4548 14.9895 55.1202 14.6587 54.7047 14.4202C54.2892 14.174 53.7777 14.0508 53.1699 14.0508C52.6314 14.0508 52.1621 14.1432 51.762 14.3279C51.3697 14.5124 51.0351 14.7625 50.7581 15.0779C50.4811 15.3856 50.2541 15.7395 50.0772 16.1396C49.908 16.532 49.781 16.9397 49.6964 17.3628V20.144C49.8194 20.6824 50.0195 21.2017 50.2965 21.7018C50.5811 22.1942 50.9581 22.5981 51.4274 22.9136C51.9043 23.2289 52.4929 23.3867 53.1929 23.3867C53.7699 23.3867 54.2623 23.2713 54.6701 23.0404C55.0855 22.802 55.4202 22.475 55.6741 22.0595C55.9356 21.6441 56.1279 21.1633 56.2511 20.6171C56.3741 20.0709 56.4357 19.4862 56.4357 18.863ZM63.0804 18.863V18.5976C63.0804 17.6974 63.2111 16.8628 63.4727 16.0934C63.7343 15.3165 64.1113 14.6433 64.6036 14.0739C65.096 13.4969 65.6923 13.0508 66.3923 12.7353C67.0924 12.4122 67.8771 12.2506 68.7464 12.2506C69.6235 12.2506 70.4121 12.4122 71.1121 12.7353C71.8199 13.0508 72.42 13.4969 72.9124 14.0739C73.4124 14.6433 73.7932 15.3165 74.0548 16.0934C74.3164 16.8628 74.4472 17.6974 74.4472 18.5976V18.863C74.4472 19.7632 74.3164 20.5978 74.0548 21.3672C73.7932 22.1365 73.4124 22.8097 72.9124 23.3867C72.42 23.956 71.8237 24.4022 71.1237 24.7253C70.4313 25.0407 69.6466 25.1984 68.7695 25.1984C67.8925 25.1984 67.1039 25.0407 66.4039 24.7253C65.7037 24.4022 65.1037 23.956 64.6036 23.3867C64.1113 22.8097 63.7343 22.1365 63.4727 21.3672C63.2111 20.5978 63.0804 19.7632 63.0804 18.863ZM65.2152 18.5976V18.863C65.2152 19.4862 65.2883 20.0747 65.4345 20.6286C65.5807 21.1748 65.8 21.6595 66.0922 22.0826C66.3923 22.5058 66.7654 22.8404 67.2116 23.0866C67.6578 23.3251 68.1771 23.4444 68.7695 23.4444C69.3542 23.4444 69.8658 23.3251 70.3043 23.0866C70.7505 22.8404 71.1199 22.5058 71.4121 22.0826C71.7045 21.6595 71.9238 21.1748 72.0699 20.6286C72.2238 20.0747 72.3008 19.4862 72.3008 18.863V18.5976C72.3008 17.9822 72.2238 17.4013 72.0699 16.8551C71.9238 16.3011 71.7007 15.8127 71.4006 15.3895C71.1083 14.9587 70.739 14.6202 70.2928 14.374C69.8543 14.1278 69.3389 14.0047 68.7464 14.0047C68.1618 14.0047 67.6463 14.1278 67.2001 14.374C66.7616 14.6202 66.3923 14.9587 66.0922 15.3895C65.8 15.8127 65.5807 16.3011 65.4345 16.8551C65.2883 17.4013 65.2152 17.9822 65.2152 18.5976ZM82.8113 23.6751L86.2848 12.4814H88.5697L83.5614 26.8948C83.446 27.2025 83.2921 27.5333 83.0998 27.8872C82.9151 28.2488 82.6767 28.5912 82.3843 28.9142C82.0919 29.2374 81.738 29.499 81.3226 29.699C80.9148 29.9067 80.4264 30.0105 79.8571 30.0105C79.6878 30.0105 79.4724 29.9875 79.2108 29.9413C78.9493 29.8951 78.7646 29.8567 78.6569 29.826L78.6454 28.095C78.7069 28.1026 78.803 28.1103 78.9339 28.118C79.0723 28.1334 79.1685 28.1411 79.2224 28.1411C79.707 28.1411 80.1186 28.0757 80.4572 27.9449C80.7956 27.8219 81.0802 27.6103 81.3111 27.3102C81.5496 27.0178 81.7535 26.614 81.9227 26.0986L82.8113 23.6751ZM80.261 12.4814L83.5037 22.175L84.0576 24.4253L82.5228 25.2099L77.9299 12.4814H80.261ZM100.569 22.5442V7.24233H102.715V24.9676H100.754L100.569 22.5442ZM92.1678 18.863V18.6207C92.1678 17.6667 92.2833 16.8012 92.514 16.0242C92.7526 15.2395 93.0872 14.5663 93.518 14.0047C93.9566 13.4431 94.4758 13.0123 95.0758 12.7122C95.6837 12.4045 96.3606 12.2506 97.1069 12.2506C97.8916 12.2506 98.5763 12.3891 99.161 12.6661C99.7534 12.9354 100.253 13.3315 100.661 13.8547C101.077 14.3701 101.404 14.9933 101.642 15.7241C101.881 16.455 102.046 17.282 102.138 18.2052V19.2669C102.054 20.1824 101.888 21.0056 101.642 21.7365C101.404 22.4673 101.077 23.0905 100.661 23.6059C100.253 24.1214 99.7534 24.5176 99.161 24.7945C98.5687 25.0638 97.8762 25.1984 97.0839 25.1984C96.353 25.1984 95.6837 25.0407 95.0758 24.7253C94.4758 24.4098 93.9566 23.9675 93.518 23.3982C93.0872 22.8288 92.7526 22.1596 92.514 21.3902C92.2833 20.6133 92.1678 19.7708 92.1678 18.863ZM94.3143 18.6207V18.863C94.3143 19.4862 94.3758 20.0709 94.4989 20.6171C94.6297 21.1633 94.8297 21.6441 95.0989 22.0595C95.3682 22.475 95.7106 22.802 96.126 23.0404C96.5415 23.2713 97.0377 23.3867 97.6147 23.3867C98.3225 23.3867 98.9033 23.2366 99.3572 22.9366C99.8187 22.6365 100.188 22.2404 100.465 21.748C100.742 21.2556 100.957 20.721 101.111 20.144V17.3628C101.019 16.9397 100.884 16.532 100.707 16.1396C100.538 15.7395 100.315 15.3856 100.038 15.0779C99.7687 14.7625 99.4341 14.5124 99.0341 14.3279C98.6417 14.1432 98.1762 14.0508 97.6378 14.0508C97.053 14.0508 96.5491 14.174 96.126 14.4202C95.7106 14.6587 95.3682 14.9895 95.0989 15.4126C94.8297 15.828 94.6297 16.3127 94.4989 16.8666C94.3758 17.4128 94.3143 17.9975 94.3143 18.6207ZM124.868 22.5442V7.24233H127.014V24.9676H125.051L124.868 22.5442ZM116.466 18.863V18.6207C116.466 17.6667 116.582 16.8012 116.813 16.0242C117.051 15.2395 117.386 14.5663 117.816 14.0047C118.255 13.4431 118.774 13.0123 119.374 12.7122C119.982 12.4045 120.659 12.2506 121.405 12.2506C122.19 12.2506 122.875 12.3891 123.459 12.6661C124.052 12.9354 124.552 13.3315 124.96 13.8547C125.375 14.3701 125.702 14.9933 125.941 15.7241C126.179 16.455 126.345 17.282 126.437 18.2052V19.2669C126.352 20.1824 126.187 21.0056 125.941 21.7365C125.702 22.4673 125.375 23.0905 124.96 23.6059C124.552 24.1214 124.052 24.5176 123.459 24.7945C122.867 25.0638 122.175 25.1984 121.382 25.1984C120.652 25.1984 119.982 25.0407 119.374 24.7253C118.774 24.4098 118.255 23.9675 117.816 23.3982C117.386 22.8288 117.051 22.1596 116.813 21.3902C116.582 20.6133 116.466 19.7708 116.466 18.863ZM118.612 18.6207V18.863C118.612 19.4862 118.674 20.0709 118.797 20.6171C118.928 21.1633 119.128 21.6441 119.398 22.0595C119.667 22.475 120.009 22.802 120.425 23.0404C120.84 23.2713 121.337 23.3867 121.913 23.3867C122.621 23.3867 123.202 23.2366 123.656 22.9366C124.117 22.6365 124.486 22.2404 124.764 21.748C125.041 21.2556 125.256 20.721 125.409 20.144V17.3628C125.318 16.9397 125.183 16.532 125.005 16.1396C124.836 15.7395 124.613 15.3856 124.336 15.0779C124.067 14.7625 123.733 14.5124 123.333 14.3279C122.94 14.1432 122.475 14.0508 121.936 14.0508C121.351 14.0508 120.847 14.174 120.425 14.4202C120.009 14.6587 119.667 14.9895 119.398 15.4126C119.128 15.828 118.928 16.3127 118.797 16.8666C118.674 17.4128 118.612 17.9975 118.612 18.6207ZM137.882 25.1984C137.013 25.1984 136.224 25.0523 135.517 24.7599C134.816 24.4599 134.213 24.0406 133.704 23.502C133.204 22.9635 132.82 22.325 132.551 21.5864C132.281 20.8478 132.147 20.0401 132.147 19.1631V18.6784C132.147 17.6629 132.297 16.7589 132.597 15.9665C132.897 15.1664 133.304 14.4894 133.82 13.9355C134.335 13.3816 134.92 12.9623 135.574 12.6776C136.228 12.393 136.905 12.2506 137.605 12.2506C138.497 12.2506 139.267 12.4045 139.913 12.7122C140.567 13.02 141.102 13.4508 141.517 14.0047C141.932 14.551 142.24 15.1972 142.44 15.9434C142.64 16.6819 142.74 17.4898 142.74 18.3668V19.3246H133.417V17.5821H140.606V17.4205C140.575 16.8666 140.459 16.328 140.26 15.8049C140.067 15.2818 139.759 14.851 139.336 14.5124C138.913 14.174 138.336 14.0047 137.605 14.0047C137.121 14.0047 136.674 14.1086 136.267 14.3163C135.859 14.5163 135.509 14.8163 135.216 15.2164C134.924 15.6165 134.697 16.1049 134.535 16.6819C134.374 17.2589 134.293 17.9245 134.293 18.6784V19.1631C134.293 19.7554 134.374 20.3132 134.535 20.8364C134.705 21.3518 134.947 21.8057 135.262 22.198C135.586 22.5904 135.974 22.8981 136.428 23.1212C136.89 23.3443 137.412 23.4559 137.997 23.4559C138.751 23.4559 139.39 23.3021 139.913 22.9943C140.437 22.6865 140.894 22.2749 141.287 21.7595L142.579 22.7866C142.31 23.1943 141.967 23.5828 141.552 23.9521C141.136 24.3214 140.624 24.6214 140.017 24.8522C139.416 25.083 138.705 25.1984 137.882 25.1984ZM149.916 7.24233V24.9676H147.77V7.24233H149.916ZM158.557 24.9676H156.422V11.3967C156.422 10.4504 156.606 9.65032 156.976 8.9964C157.345 8.34248 157.872 7.84626 158.557 7.50775C159.241 7.16925 160.053 7 160.992 7C161.546 7 162.088 7.06923 162.619 7.20772C163.15 7.3385 163.696 7.50391 164.257 7.70393L163.9 9.50415C163.546 9.36568 163.134 9.23489 162.665 9.1118C162.203 8.98101 161.695 8.91562 161.142 8.91562C160.226 8.91562 159.565 9.12334 159.157 9.53878C158.757 9.94651 158.557 10.5658 158.557 11.3967V24.9676ZM161.108 12.4814V14.1201H154.448V12.4814H161.108ZM165.308 12.4814V24.9676H163.172V12.4814H165.308ZM173.314 15.1471V24.9676H171.179V12.4814H173.198L173.314 15.1471ZM172.806 18.2514L171.918 18.2167C171.926 17.3628 172.052 16.5742 172.298 15.8511C172.545 15.1202 172.891 14.4855 173.337 13.9471C173.783 13.4085 174.314 12.9931 174.93 12.7007C175.553 12.4007 176.241 12.2506 176.996 12.2506C177.611 12.2506 178.164 12.3353 178.657 12.5045C179.149 12.6661 179.569 12.9277 179.915 13.2893C180.268 13.6508 180.538 14.1201 180.723 14.6971C180.907 15.2664 181 15.9626 181 16.7858V24.9676H178.853V16.7627C178.853 16.1088 178.757 15.5856 178.564 15.1933C178.373 14.7932 178.092 14.5048 177.722 14.3279C177.354 14.1432 176.899 14.0508 176.361 14.0508C175.83 14.0508 175.345 14.1624 174.906 14.3856C174.476 14.6087 174.102 14.9164 173.787 15.3087C173.479 15.7011 173.237 16.1511 173.06 16.6589C172.891 17.159 172.806 17.6898 172.806 18.2514Z" fill="white"/>
<path d="M108.437 23.8367C108.437 23.4751 108.548 23.1712 108.771 22.9251C109.002 22.6712 109.333 22.5442 109.764 22.5442C110.195 22.5442 110.521 22.6712 110.745 22.9251C110.975 23.1712 111.091 23.4751 111.091 23.8367C111.091 24.1906 110.975 24.4906 110.745 24.7368C110.521 24.983 110.195 25.1061 109.764 25.1061C109.333 25.1061 109.002 24.983 108.771 24.7368C108.548 24.4906 108.437 24.1906 108.437 23.8367Z" fill="white"/>
</svg>
