<svg width="73" height="73" viewBox="0 0 73 73" fill="none" xmlns="http://www.w3.org/2000/svg">
<path fill-rule="evenodd" clip-rule="evenodd" d="M4.46958 0.245166C2.74843 0.707536 1.39643 1.89229 0.741043 3.51266L0.389893 4.38097V22.5252V40.6694L0.802106 41.5486C1.37936 42.7799 2.42435 43.8429 3.58393 44.3782L4.54279 44.821L11.9586 44.865C19.2433 44.9083 19.3799 44.9036 19.6876 44.5959C20.0816 44.2021 20.1029 43.3466 19.7275 43.0069C19.4862 42.7884 18.61 42.7543 12.2292 42.714C5.1708 42.6694 4.99007 42.6606 4.38898 42.3372C3.6167 41.9218 3.1628 41.4394 2.85825 40.7106C2.64999 40.2125 2.62015 38.5871 2.62015 27.7581V15.3751H21.3851C39.945 15.3751 40.1534 15.3717 40.4577 15.0676C40.9004 14.6251 40.9168 13.9611 40.4969 13.4915C40.2702 13.2379 39.1655 13.2224 21.4316 13.2224H2.60677L2.65199 8.77617L2.69706 4.32992L3.15849 3.67534C3.41228 3.31523 3.92493 2.85962 4.29777 2.66296L4.97577 2.30515H36.4586H67.9414L68.6194 2.66296C68.9923 2.85962 69.5049 3.31538 69.7587 3.67565L70.2201 4.33053L70.297 24.3202L70.3739 44.31L70.7371 44.604C71.2317 45.0043 71.7739 44.9731 72.2295 44.5176L72.6099 44.1374L72.5685 24.2592L72.5273 4.38097L72.1761 3.51266C71.5071 1.85846 70.0585 0.616968 68.3201 0.207801C67.6121 0.0412745 61.7082 0.00498588 36.3817 0.0111365C9.53288 0.0179021 5.19741 0.0497315 4.46958 0.245166ZM6.69615 4.70449C6.00292 5.08183 5.39675 5.69442 5.05083 6.3673C4.58832 7.2662 4.7086 8.68868 5.32031 9.55898C6.48097 11.2098 9.0896 11.4205 10.4081 9.96984C11.745 8.49908 11.4907 6.13896 9.87265 5.00202C9.33355 4.62315 9.04238 4.53612 8.18919 4.4986C7.45505 4.46631 7.02453 4.52566 6.69615 4.70449ZM15.4497 4.66851C14.7865 4.96865 13.8948 5.92722 13.6835 6.56704C13.4005 7.42473 13.5683 8.78816 14.046 9.50962C15.3031 11.4088 18.1389 11.4294 19.4611 9.54883C19.8791 8.95423 19.9239 8.7754 19.9239 7.6989C19.9239 6.65007 19.8736 6.43526 19.5034 5.90554C18.8258 4.93544 18.1234 4.54949 16.9413 4.49798C16.3087 4.4703 15.7453 4.53473 15.4497 4.66851ZM24.0313 4.78506C22.4352 5.57495 21.7955 7.66937 22.6519 9.30143C23.7356 11.3666 26.8491 11.5106 28.2212 9.55898C28.8033 8.73096 28.9515 7.26436 28.5361 6.44233C27.6431 4.67496 25.699 3.95981 24.0313 4.78506ZM7.30447 6.98804C6.84319 7.44903 6.82704 7.82606 7.24571 8.35808C7.46028 8.63101 7.71145 8.76325 8.01477 8.76325C9.01131 8.76325 9.45167 7.54006 8.67493 6.9293C8.14274 6.51076 7.7656 6.5269 7.30447 6.98804ZM16.0717 6.98804C15.8641 7.19562 15.6941 7.52945 15.6941 7.72996C15.6941 8.19817 16.2947 8.76325 16.7923 8.76325C17.2619 8.76325 17.8475 8.17787 17.8475 7.70843C17.8475 7.27574 17.1951 6.61055 16.7708 6.61055C16.5939 6.61055 16.2793 6.78046 16.0717 6.98804ZM24.8666 6.9293C24.0899 7.54006 24.5302 8.76325 25.5268 8.76325C25.8301 8.76325 26.0813 8.63101 26.2958 8.35808C26.7145 7.82606 26.6984 7.44903 26.2371 6.98804C25.776 6.5269 25.3988 6.51076 24.8666 6.9293ZM43.327 13.5037C42.9768 13.8905 43.004 14.6916 43.3801 15.0676C43.6803 15.3677 43.8927 15.3751 52.2841 15.3751C60.2475 15.3751 60.9039 15.3553 61.1986 15.106C61.6891 14.691 61.7565 14.1255 61.3735 13.6387L61.0461 13.2224H52.3138C44.0495 13.2224 43.5679 13.2375 43.327 13.5037ZM63.0148 13.5037C62.6646 13.8905 62.6918 14.6916 63.0679 15.0676C63.3448 15.3444 63.5806 15.3751 65.4252 15.3751C67.3688 15.3751 67.4921 15.3567 67.8093 15.0193C68.2024 14.6008 68.239 14.042 67.9042 13.5642C67.6758 13.2381 67.5638 13.2224 65.4671 13.2224C63.5333 13.2224 63.2388 13.2562 63.0148 13.5037ZM40.1287 18.8977C39.7829 19.1773 39.7618 19.3032 39.6886 21.5283L39.6117 23.8652L38.6796 24.2152C38.1668 24.4075 37.469 24.7069 37.1287 24.8805L36.5101 25.1961L34.9105 23.5915C33.5786 22.2555 33.2326 21.987 32.8422 21.987C32.436 21.987 31.9179 22.4441 28.9558 25.4161C26.1497 28.2314 25.538 28.9213 25.538 29.271C25.538 29.6032 25.8884 30.0579 27.1315 31.3389L28.7248 32.9811L28.3618 33.75C28.162 34.1728 27.8822 34.8821 27.74 35.3261L27.4814 36.1333H25.2193C23.2213 36.1333 22.9149 36.1676 22.5942 36.4273L22.2311 36.7212V41.592V46.4627L22.5942 46.7566C22.9141 47.0157 23.2207 47.0506 25.1753 47.0506C27.1484 47.0506 27.404 47.0803 27.49 47.3197C27.5431 47.4676 27.8518 48.2109 28.176 48.9714L28.7654 50.3541L27.1516 51.9724C25.9674 53.16 25.538 53.6926 25.538 53.9738C25.538 54.2683 26.3304 55.1486 28.9615 57.7769C31.8886 60.701 32.4515 61.1969 32.8426 61.1969C33.2175 61.1969 33.5856 60.9126 34.878 59.625C36.3989 58.1098 36.4711 58.0593 36.8802 58.2282C38.2207 58.7813 39.1829 59.1685 39.4195 59.2496C39.6592 59.3321 39.6886 59.5865 39.6886 61.5835C39.6886 63.7582 39.6999 63.8361 40.0662 64.2022L40.4437 64.5797H45.152C47.9291 64.5797 49.9758 64.5179 50.1418 64.4292C50.608 64.1798 50.763 63.4044 50.763 61.3228C50.763 59.5738 50.7946 59.3314 51.0322 59.2507C51.1802 59.2004 51.8755 58.9183 52.5774 58.6237L53.8536 58.088L55.4518 59.6424C56.8309 60.9838 57.1205 61.1969 57.5641 61.1969C58.0294 61.1969 58.4021 60.8719 61.4958 57.7678C64.0065 55.2488 64.9136 54.2429 64.9136 53.9777C64.9136 53.7257 64.4265 53.1223 63.3017 51.9812L61.6896 50.3458L62.3404 48.7034L62.991 47.061L65.2597 47.0558C67.3194 47.051 67.5567 47.0223 67.8361 46.7431C68.1306 46.4486 68.1437 46.2306 68.1437 41.592C68.1437 36.9533 68.1306 36.7353 67.8361 36.4408C67.556 36.1608 67.3234 36.1333 65.2379 36.1333H62.9475L62.8441 35.7215C62.7872 35.4949 62.492 34.7659 62.1881 34.1013L61.6356 32.8929L63.2746 31.2302C64.4201 30.0681 64.9136 29.4587 64.9136 29.2062C64.9136 28.941 64.0065 27.9351 61.4958 25.4161C58.5333 22.4437 58.0157 21.987 57.6093 21.987C57.2196 21.987 56.8812 22.2479 55.6052 23.5326C54.4482 24.6974 53.9941 25.0604 53.7623 25.0058C53.5932 24.9662 52.8664 24.6885 52.1473 24.3889L50.8399 23.8443L50.7555 21.6472C50.709 20.4386 50.6188 19.3381 50.5548 19.2015C50.3027 18.6637 49.7582 18.6042 45.0819 18.6042C40.7936 18.6042 40.4678 18.6235 40.1287 18.8977ZM41.9958 22.8428C41.9958 24.6969 41.8815 25.29 41.4728 25.5574C41.3798 25.6184 40.7499 25.8517 40.0732 26.076C39.3964 26.3002 38.3077 26.7521 37.654 27.08C37.0003 27.408 36.35 27.6763 36.209 27.6763C36.0679 27.6763 35.2507 26.9859 34.3929 26.142L32.8334 24.6078L30.5373 26.907L28.2414 29.2061L29.7352 30.7262C30.8336 31.8438 31.229 32.3496 31.229 32.6369C31.229 32.8517 30.9574 33.5585 30.6253 34.2076C30.2932 34.8566 29.8607 35.9068 29.664 36.5413C29.118 38.3025 29.1467 38.286 26.6087 38.286H24.4613V41.592V44.8979H26.5879C29.0684 44.8979 29.1296 44.9306 29.6 46.5124C29.751 47.0198 30.1793 48.0625 30.5518 48.8295C30.9243 49.5963 31.229 50.3845 31.229 50.5809C31.229 50.8254 30.7588 51.4163 29.7352 52.4577L28.2414 53.9778L30.5404 56.28L32.8394 58.5821L34.3029 57.1372C35.1078 56.3426 35.9135 55.6489 36.0933 55.5957C36.3132 55.5307 36.8907 55.7281 37.8595 56.1994C38.6512 56.5846 39.7637 57.0382 40.3319 57.2073C41.9007 57.6745 41.9958 57.8552 41.9958 60.372V62.427H45.2258H48.4559V60.2743C48.4559 57.7312 48.474 57.6974 50.1027 57.2124C50.6803 57.0405 51.8005 56.5846 52.5921 56.1994C53.561 55.7281 54.1384 55.5307 54.3584 55.5957C54.5382 55.6489 55.3438 56.3426 56.1487 57.1372L57.6122 58.5821L59.9148 56.2765L62.2172 53.9709L60.7198 52.4685C59.5523 51.2968 59.2226 50.8729 59.2226 50.5426C59.2226 50.3096 59.4897 49.5843 59.8162 48.9308C60.1426 48.2773 60.5983 47.171 60.829 46.4723C61.0808 45.7099 61.3621 45.1413 61.5329 45.05C61.6893 44.9663 62.7561 44.8979 63.9037 44.8979H65.9903V41.592V38.286H63.9037C62.7561 38.286 61.6893 38.2176 61.5329 38.1339C61.3621 38.0426 61.0808 37.474 60.829 36.7116C60.5983 36.0129 60.1426 34.9066 59.8162 34.2531C59.4897 33.5996 59.2226 32.8743 59.2226 32.6413C59.2226 32.311 59.5523 31.8871 60.7198 30.7154L62.2172 29.213L59.9177 26.9104L57.6182 24.6078L56.0587 26.142C55.2009 26.9859 54.3724 27.6763 54.2176 27.6763C54.0627 27.6763 53.4818 27.4413 52.9264 27.1541C52.371 26.8669 51.2591 26.408 50.4554 26.1343C49.6517 25.8606 48.873 25.4999 48.725 25.3324C48.4972 25.075 48.4559 24.7117 48.4559 22.9694V20.9106H45.2258H41.9958V22.8428ZM43.3801 27.4712C37.463 28.4016 32.9131 32.4467 31.4345 38.091C30.8966 40.1444 30.8711 42.7985 31.3696 44.8531C31.7523 46.4305 32.131 47.0506 32.7114 47.0506C33.8206 47.0506 34.0999 46.398 33.6446 44.8716C33.369 43.9479 33.3081 43.3564 33.307 41.592C33.3053 39.1851 33.5579 38.0658 34.5376 36.1399C36.7774 31.7369 41.7283 29.0791 46.5717 29.6797C47.312 29.7715 48.5557 30.0622 49.3357 30.3258C50.5312 30.7299 50.8155 30.7771 51.146 30.6264C51.8435 30.3087 51.9608 29.2906 51.3558 28.8026C50.9659 28.488 48.8941 27.8276 47.5762 27.5979C46.3674 27.387 44.3094 27.3249 43.3801 27.4712ZM46.7356 36.336C42.7099 39.0245 39.9509 40.9647 39.8526 41.1763C39.7591 41.3781 39.6886 42.5401 39.6886 43.8849C39.6886 46.035 39.7165 46.2756 40.0075 46.6454L40.3262 47.0506H42.9779H45.6297L46.0253 46.6277C46.8531 45.7433 55.0697 33.2023 55.0697 32.8234C55.0697 32.6141 54.9313 32.3046 54.7621 32.1354C54.0853 31.4589 53.8686 31.5724 46.7356 36.336ZM56.5609 35.2278C56.004 35.5518 55.9803 36.0328 56.4545 37.3922C57.3337 39.9124 57.4306 42.3898 56.7474 44.882L56.4027 46.1395L56.7127 46.5567C57.0747 47.0434 57.7114 47.1691 58.1989 46.8498C59.1074 46.2547 59.6915 41.8123 59.2148 39.1216C58.9868 37.8343 58.3362 35.9137 57.9711 35.4495C57.6422 35.0316 57.0565 34.9396 56.5609 35.2278ZM45.8795 39.537L41.9958 42.1332V43.5155V44.8979H43.3016H44.6077L47.2351 40.9624C48.6801 38.7979 49.8402 37.0076 49.8128 36.9839C49.7856 36.9603 48.0155 38.1092 45.8795 39.537ZM12.5637 48.2849C11.1714 48.702 10.1569 50.1162 10.1569 51.64V52.1566L9.59133 51.6601C8.8455 51.0056 8.17504 50.7402 7.27786 50.7443C5.01715 50.7546 3.38475 53.1123 4.23302 55.1417C4.35868 55.4424 4.67599 55.9592 4.93809 56.29L5.41459 56.8915L4.74798 56.8949C2.67906 56.9053 1.07758 58.9304 1.55194 60.9361C1.89509 62.3874 3.34768 63.5 4.90256 63.5025L5.41613 63.5034L4.99407 64.0031C3.68683 65.5512 3.69837 67.3543 5.02407 68.6814C6.28009 69.939 8.1352 69.9761 9.54288 68.7717L10.1569 68.2461V68.7769C10.1569 70.7826 12.1011 72.5121 13.9959 72.1921C15.4974 71.9386 16.7708 70.4365 16.7708 68.919V68.2442L17.3725 68.7206C18.1646 69.3478 18.9258 69.654 19.6932 69.654C21.4472 69.654 22.9117 68.1689 22.9198 66.3815C22.924 65.4915 22.6588 64.8148 22.0223 64.09L21.5443 63.5458L22.3949 63.458C24.087 63.2835 25.3468 62.0549 25.5034 60.4269C25.5578 59.8602 25.4852 59.4947 25.1902 58.8505C24.6194 57.6041 23.5009 56.8915 22.1152 56.8915H21.5071L22.0037 56.3261C22.665 55.5731 22.9232 54.911 22.9232 53.9688C22.9232 51.6654 20.4725 50.0771 18.3858 51.028C18.0474 51.1822 17.5551 51.4904 17.2917 51.7126L16.8128 52.1168L16.7272 51.1744C16.6142 49.9272 16.0646 49.1224 14.9349 48.5498C14.0863 48.1196 13.3789 48.0405 12.5637 48.2849ZM35.7872 48.4457C35.2978 48.8304 35.2518 49.4698 35.6758 49.9935L35.9698 50.3565L44.7123 50.4023C49.5207 50.4276 53.6836 50.4063 53.9632 50.3553C55.0241 50.1615 55.3986 49.2105 54.6921 48.5044L54.3147 48.1269H45.2535C36.3195 48.1269 36.1868 48.1314 35.7872 48.4457ZM12.7186 50.7146C12.538 50.9141 12.4634 51.2826 12.4618 51.9832C12.4587 53.3618 12.2761 53.6359 11.0179 54.1507C10.4341 54.3896 9.86373 54.585 9.75068 54.585C9.63748 54.585 9.16451 54.2406 8.69954 53.8198C7.76744 52.9757 7.27725 52.7777 6.77997 53.0437C6.38914 53.2528 6.12735 53.8585 6.26378 54.2377C6.31731 54.3865 6.69599 54.8674 7.10544 55.3062C7.9877 56.2522 8.01523 56.4942 7.39706 57.8714C6.89841 58.9825 6.88257 58.9916 5.27909 59.0845C4.14165 59.1505 3.69683 59.4632 3.69683 60.1974C3.69683 60.9217 4.09243 61.1941 5.17019 61.2123C6.65477 61.2372 6.79305 61.3147 7.34169 62.4283C8.02907 63.8234 8.002 64.1272 7.10544 65.0887C6.69599 65.5275 6.31716 66.0087 6.26363 66.1577C6.11828 66.5613 6.44836 67.1493 6.93286 67.3499C7.46505 67.5703 7.79436 67.4158 8.82259 66.4633C9.66439 65.6836 9.78837 65.6773 11.2757 66.3376C12.3112 66.7972 12.4641 67.0738 12.4641 68.4869C12.4641 69.5975 12.7206 69.9615 13.5032 69.9615C14.2638 69.9615 14.6174 69.3787 14.6174 68.1249C14.6174 67.5378 14.6997 66.9932 14.8097 66.8524C15.0172 66.5864 16.8603 65.8098 17.284 65.8098C17.4262 65.8098 17.9631 66.1964 18.4772 66.6689C19.2673 67.395 19.4754 67.5129 19.8218 67.4311C20.339 67.309 20.7699 66.8084 20.7699 66.3297C20.7699 66.0968 20.4582 65.6221 19.9239 65.041C19.4586 64.5351 19.0779 64.0257 19.0779 63.909C19.0779 63.7923 19.2942 63.2074 19.5586 62.6089C20.1079 61.3657 20.3813 61.1969 21.8456 61.1969C23.0195 61.1969 23.4419 60.7538 23.1867 59.79C23.0523 59.2821 22.4287 59.0442 21.2322 59.0442C20.5922 59.0442 20.291 58.9716 20.1149 58.7751C19.8353 58.463 19.0779 56.7969 19.0779 56.4937C19.0779 56.3807 19.4586 55.8616 19.9239 55.3403C20.8746 54.2751 20.9709 53.8496 20.3923 53.2711C19.8475 52.7263 19.4935 52.7989 18.5564 53.6472C17.4711 54.6299 17.2564 54.6853 16.188 54.2589C14.8021 53.7058 14.6174 53.4775 14.6174 52.3186C14.6174 51.3672 14.4453 50.7852 14.0945 50.551C13.7739 50.337 12.9744 50.432 12.7186 50.7146ZM40.4348 51.5296C39.6276 51.8253 39.5319 53.0957 40.2863 53.4993C40.7207 53.7317 49.5435 53.721 50.056 53.4875C50.8649 53.1191 50.8264 51.9761 49.9909 51.5534C49.5235 51.3171 41.0726 51.2959 40.4348 51.5296ZM12.1383 56.018C10.6632 56.57 9.70946 57.5778 9.28602 59.0314C8.69908 61.0468 9.73761 63.2641 11.695 64.1746C12.6763 64.6309 14.4515 64.6242 15.3274 64.1607C16.3538 63.6175 16.8775 63.0881 17.3771 62.0887C18.7932 59.2558 16.8949 56.0484 13.6946 55.8667C13.0915 55.8324 12.4741 55.8925 12.1383 56.018ZM12.8258 58.1358C12.5594 58.213 12.1194 58.5291 11.8477 58.8383C11.3858 59.3642 11.3583 59.4601 11.4206 60.3211C11.4801 61.1454 11.546 61.2953 12.0503 61.7574C13.1158 62.7336 14.7586 62.4167 15.3897 61.1133C15.7665 60.3352 15.7662 60.0638 15.3883 59.2312C15.1601 58.7284 14.9333 58.5017 14.4304 58.2735C13.7044 57.9442 13.537 57.9299 12.8258 58.1358Z" fill="url(#paint0_linear_4_291)"/>
<defs>
<linearGradient id="paint0_linear_4_291" x1="36.4999" y1="0.010498" x2="36.4999" y2="72.2305" gradientUnits="userSpaceOnUse">
<stop stop-color="#FFA800"/>
<stop offset="1" stop-color="#DD6A00"/>
</linearGradient>
</defs>
</svg>
