<svg width="73" height="70" viewBox="0 0 73 70" fill="none" xmlns="http://www.w3.org/2000/svg">
<path fill-rule="evenodd" clip-rule="evenodd" d="M12.3728 0.205653C12.0673 0.309552 11.5943 0.599105 11.3216 0.849011C10.3501 1.73968 10.3561 1.70919 10.2772 6.15679L10.2055 10.1897L6.76646 10.2581C3.71688 10.3187 3.2625 10.3571 2.75424 10.597C1.87098 11.014 1.0403 11.891 0.695251 12.771L0.389893 13.5494V34.2508V54.9521L0.695251 55.7305C1.0403 56.6105 1.87098 57.4875 2.75424 57.9045C3.27912 58.1522 3.6802 58.1785 7.51273 58.215C11.5648 58.2538 11.7072 58.2461 11.9907 57.9757C12.4234 57.5629 12.382 56.8337 11.9057 56.4762C11.5457 56.2059 11.3544 56.1928 7.78599 56.1922C2.26088 56.1915 2.62699 56.601 2.56796 50.3547L2.52497 45.8028H36.4999H70.4748L70.4318 50.3547C70.3843 55.3972 70.3917 55.3565 69.4139 55.9254C68.9644 56.1869 68.47 56.1918 42.476 56.1922L15.9959 56.1928L15.6442 56.5284C15.1936 56.9582 15.1844 57.5521 15.6223 57.9446C15.9479 58.2363 16.0294 58.2407 21.7481 58.276L27.544 58.3118V61.0443V63.7768L26.8677 63.869C24.4182 64.2034 22.379 66.3331 22.2932 68.6468C22.2733 69.1857 22.3355 69.3897 22.6026 69.6609L22.937 70.0005H36.4999H50.0628L50.3972 69.6609C50.6643 69.3897 50.7265 69.1857 50.7066 68.6468C50.6208 66.3331 48.5816 64.2034 46.1321 63.869L45.4557 63.7768V61.0443V58.3118L57.5641 58.2434C69.2641 58.1774 69.6917 58.1659 70.2455 57.9045C71.1288 57.4875 71.9595 56.6105 72.3045 55.7305L72.6099 54.9521V34.2508V13.5494L72.3045 12.771C71.7527 11.3637 70.4149 10.3971 68.8645 10.2856C67.8818 10.2149 67.4513 10.5158 67.4513 11.2734C67.4513 11.8229 67.9811 12.3085 68.5812 12.3093C69.067 12.31 69.8026 12.742 70.1303 13.219C70.3755 13.5761 70.3888 14.3694 70.3888 28.6396V43.6838L66.4124 43.7201L62.436 43.7565V28.0326V12.3088H63.4914C64.7782 12.3088 65.3019 12.0169 65.3019 11.2997C65.3019 10.505 65.0403 10.3347 63.7018 10.2581L62.5077 10.1897L62.436 6.15679C62.3559 1.6448 62.3595 1.66216 61.2946 0.792413C60.9779 0.533757 60.4689 0.250767 60.1637 0.163546C59.7519 0.0458382 53.5828 0.0063289 36.2683 0.0108403C16.788 0.0158986 12.8362 0.0480255 12.3728 0.205653ZM13.1278 2.20777C12.9225 2.27968 12.6808 2.49309 12.5905 2.68189C12.4753 2.92332 12.4266 4.8307 12.4266 9.10249V15.1797H14.9991C16.6168 15.1797 17.7045 15.2374 17.9295 15.3352C18.3605 15.5225 18.6264 16.1595 18.4542 16.5917C18.191 17.2521 17.9974 17.2958 15.1275 17.3435L12.4266 17.3884V30.5702V43.7521H36.3566H60.2866V30.5616V17.371L41.5266 17.3349L22.7668 17.2987L22.3969 16.9673C21.8182 16.4485 21.9159 15.7224 22.6107 15.3797C22.9604 15.2071 25.5763 15.1797 41.6513 15.1797H60.2866V9.10249C60.2866 4.85148 60.2376 2.92277 60.1236 2.68394C60.0339 2.4961 59.7663 2.27791 59.529 2.19903C58.9612 2.01009 13.6679 2.0187 13.1278 2.20777ZM19.5066 4.38653C19.3561 4.44012 19.1283 4.59897 19.0002 4.73938C18.5079 5.27925 15.1491 11.0188 15.1491 11.3201C15.1491 11.4948 15.3075 11.7886 15.5009 11.9731L15.8526 12.3088H19.8714C23.699 12.3088 23.9037 12.2958 24.1766 12.0353C24.7272 11.5101 24.5671 11.0673 22.7232 8.01331C21.7663 6.4283 20.8647 4.9696 20.7197 4.77191C20.4361 4.38516 19.9466 4.22972 19.5066 4.38653ZM29.219 5.8887C29.0144 6.07052 28.9053 6.33 28.9053 6.63527C28.9053 6.94055 29.0144 7.20002 29.219 7.38185C29.5282 7.65677 29.6685 7.6606 39.2941 7.6606C48.9197 7.6606 49.06 7.65677 49.3692 7.38185C49.7961 7.00248 49.7875 6.29815 49.3513 5.90716L49.0196 5.60995H39.2761C29.6685 5.60995 29.5282 5.61378 29.219 5.8887ZM18.9874 8.85682L18.1735 10.1897L19.761 10.2286C20.6343 10.2499 21.3778 10.2398 21.4132 10.2059C21.468 10.1538 19.9167 7.52389 19.8313 7.52389C19.8148 7.52389 19.4351 8.12378 18.9874 8.85682ZM29.6218 10.0816C28.8674 10.3463 28.6316 11.3463 29.2067 11.8433C29.4861 12.0847 29.8134 12.1067 33.6846 12.1452C35.9817 12.1682 38.071 12.1499 38.3275 12.1048C39.5005 11.8983 39.7304 10.6701 38.6946 10.1437C38.3733 9.98044 30.0722 9.9237 29.6218 10.0816ZM3.58591 12.5762C3.33415 12.7227 3.01174 13.012 2.86945 13.219C2.62427 13.5761 2.61094 14.3694 2.61094 28.6396V43.6838L6.44405 43.7201L10.2772 43.7566V28.0326V12.3088L7.16052 12.3093C4.32402 12.3097 4.00276 12.3338 3.58591 12.5762ZM15.5009 20.5736L15.1491 20.9091V30.8694C15.1491 40.6342 15.1547 40.8354 15.4352 41.1225C15.5925 41.2837 15.9309 41.4516 16.1874 41.4959C16.4439 41.54 21.1818 41.5582 26.7162 41.5363L36.7786 41.4964L37.105 41.1851L37.4313 40.8737L37.4743 31.2053C37.5029 24.7892 37.4671 21.3718 37.3683 21.0466C37.2737 20.736 37.0848 20.4981 36.8527 20.3972C36.5849 20.2807 33.7148 20.238 26.1694 20.238H15.8526L15.5009 20.5736ZM40.856 21.2534C40.1565 21.5439 39.9786 22.4432 40.5272 22.9168C40.8165 23.1667 41.1693 23.1772 49.209 23.1772H57.5894L57.8633 22.8545C58.374 22.2528 58.1414 21.4823 57.3639 21.2003C56.7277 20.9695 41.421 21.0187 40.856 21.2534ZM17.3941 22.3798C17.2892 22.4797 17.2587 31.7216 17.3632 31.7216C17.3987 31.7216 17.7992 31.6293 18.253 31.5166C20.6681 30.9164 22.36 31.4348 25.323 33.6829C26.6955 34.7242 27.613 35.1364 28.5627 35.138C29.3305 35.1394 29.9903 34.8724 31.6559 33.886C32.56 33.3505 33.9328 33.0104 34.7066 33.1303L35.2102 33.2082V27.7484V22.2886H26.35C21.4767 22.2886 17.4466 22.3296 17.3941 22.3798ZM28.1889 24.8228C27.3434 25.0731 26.5675 25.7001 26.1956 26.433C25.8136 27.1857 25.7992 28.4285 26.1634 29.1937C26.7088 30.3391 28.1811 31.1418 29.4696 30.9962C30.7779 30.8483 31.6574 30.243 32.189 29.1241C33.015 27.3858 32.0287 25.358 30.0859 24.8002C29.2938 24.5728 29.0218 24.5759 28.1889 24.8228ZM40.537 26.0227C40.1272 26.439 40.1282 27.1131 40.5392 27.4783C40.8473 27.7522 40.9977 27.757 49.1834 27.757H57.514L57.8257 27.4407C58.2665 26.9929 58.2373 26.3481 57.7597 25.9898C57.3877 25.7105 57.2617 25.7064 49.1153 25.7064H40.8487L40.537 26.0227ZM28.3426 27.1603C28.1793 27.3584 28.0456 27.6576 28.0456 27.8254C28.0456 27.9931 28.1793 28.2924 28.3426 28.4905C29.0152 29.3064 30.4813 28.7005 30.2774 27.6909C30.0974 26.7994 28.9088 26.4734 28.3426 27.1603ZM40.856 30.413C40.1565 30.7035 39.9786 31.6027 40.527 32.0764C40.815 32.3251 41.1953 32.3385 48.9819 32.3743C56.0999 32.4069 57.1893 32.3849 57.5625 32.2009C58.3626 31.8061 58.3207 30.7443 57.492 30.4138C56.7874 30.133 41.5319 30.1322 40.856 30.413ZM18.7333 33.5742C17.2253 33.9751 17.2985 33.8114 17.2985 36.783V39.3774H26.2544H35.2102V37.3267V35.2761H34.3741C33.6197 35.2761 33.4202 35.3447 32.3322 35.9788C30.7117 36.923 29.8774 37.19 28.5471 37.19C26.8022 37.19 25.7212 36.71 23.3169 34.8676C21.5519 33.515 20.2924 33.1595 18.7333 33.5742ZM40.537 35.1823C40.1272 35.5986 40.1282 36.2727 40.5392 36.6379C40.8473 36.9118 40.9977 36.9166 49.1834 36.9166H57.514L57.8257 36.6003C58.2665 36.1525 58.2373 35.5077 57.7597 35.1494C57.3877 34.8701 57.2617 34.866 49.1153 34.866H40.8487L40.537 35.1823ZM40.8011 39.5499C40.3445 39.7745 40.1254 40.3494 40.3078 40.8442C40.562 41.534 40.8159 41.5704 45.1186 41.5318C48.7835 41.499 49.1027 41.4769 49.3816 41.236C49.7637 40.9057 49.7769 40.2022 49.4092 39.7685L49.1354 39.4457L45.1462 39.4103C42.124 39.3834 41.0707 39.4173 40.8011 39.5499ZM35.7118 48.1784C34.858 48.5625 34.4688 48.9405 34.0759 49.7674C33.7038 50.5506 33.7038 51.4449 34.0759 52.2282C34.4688 53.055 34.858 53.433 35.7118 53.8171C37.0252 54.408 38.3299 54.1794 39.3897 53.1726C41.029 51.6154 40.5561 49.1169 38.4445 48.1789C37.5084 47.7631 36.6354 47.7629 35.7118 48.1784ZM36.7098 50.0355C35.6279 50.4491 35.9147 52.0003 37.0731 52.0003C37.6537 52.0003 38.1238 51.5517 38.1238 50.9978C38.1238 50.3127 37.3544 49.789 36.7098 50.0355ZM29.7651 61.046V63.8485H36.4999H43.2347V61.046V58.2434H36.4999H29.7651V61.046ZM26.7055 66.0396C25.8705 66.2783 24.7498 67.28 24.7498 67.7874C24.7498 67.9116 27.5217 67.9498 36.4999 67.9498C45.4781 67.9498 48.25 67.9116 48.25 67.7874C48.25 67.2544 47.1254 66.2771 46.2302 66.0322C45.6254 65.8667 27.2858 65.8736 26.7055 66.0396Z" fill="url(#paint0_linear_4_283)"/>
<defs>
<linearGradient id="paint0_linear_4_283" x1="36.4999" y1="0.010498" x2="36.4999" y2="70.0005" gradientUnits="userSpaceOnUse">
<stop stop-color="#FFA800"/>
<stop offset="1" stop-color="#DD6A00"/>
</linearGradient>
</defs>
</svg>
