<svg width="73" height="62" viewBox="0 0 73 62" fill="none" xmlns="http://www.w3.org/2000/svg">
<path fill-rule="evenodd" clip-rule="evenodd" d="M37.0509 0.114666C32.8076 0.728999 28.7238 2.64612 25.4906 5.54165L24.5683 6.36777H19.503C13.7712 6.36777 13.8099 6.36076 13.8099 7.40195C13.8099 8.37543 13.7976 8.37275 18.4777 8.45582L22.6788 8.53039L21.8299 9.76085L20.9811 10.9913H11.7442H2.50729V9.72356V8.45582H6.30624C9.78772 8.45582 10.1322 8.43285 10.427 8.18079C10.8644 7.80688 10.8644 7.01671 10.427 6.6428C10.1305 6.38925 9.77642 6.36777 5.9033 6.36777C1.76118 6.36777 1.69449 6.37269 1.22134 6.70857C0.946969 6.90321 0.668925 7.27085 0.572571 7.56616C0.329 8.31264 0.329 49.7634 0.572571 50.5098C0.668925 50.8052 0.946969 51.1728 1.22134 51.3674L1.70142 51.7082H9.28518H16.8688L17.1761 51.3631C17.5693 50.9212 17.5684 50.3122 17.174 49.9243C16.8712 49.6265 16.7152 49.6202 9.686 49.6202H2.50729V31.3498V13.0794H11.2113C18.1214 13.0794 19.8993 13.1178 19.838 13.2658C19.2943 14.5786 18.8359 15.8594 18.5906 16.7504L18.2901 17.8422L12.7172 17.8844L7.14447 17.9266L6.87448 18.2787C6.62116 18.6091 6.60448 18.928 6.60448 23.445C6.60448 27.9619 6.62116 28.2809 6.87448 28.6113L7.14432 28.9634L12.7491 29.038L18.3538 29.1126L18.7484 30.3803C18.9653 31.0776 19.1895 31.7656 19.2464 31.9091C19.3442 32.1553 19.0061 32.1701 13.2756 32.1701C7.58258 32.1701 7.18063 32.1874 6.87914 32.4451C6.44173 32.819 6.44173 33.6092 6.87914 33.9831C7.18148 34.2416 7.59516 34.2581 13.7255 34.2581H20.2501L20.7673 35.1903C21.0519 35.7031 21.4466 36.3536 21.6444 36.6361C21.8424 36.9187 22.0043 37.2039 22.0043 37.27C22.0043 37.3361 18.6735 37.3902 14.6026 37.3902C7.61988 37.3902 7.18275 37.4057 6.87914 37.6652C6.66156 37.8512 6.55744 38.1001 6.55744 38.4342C6.55744 38.7683 6.66156 39.0172 6.87914 39.2032C7.1836 39.4635 7.64404 39.4782 15.4596 39.4782H23.7183L25.0539 40.7057C29.8042 45.0714 35.2828 47.0416 41.4796 46.6128C44.3042 46.4173 47.0893 45.6325 49.507 44.3506L50.7822 43.6745L51.6872 44.6506C53.0634 46.1352 53.5743 46.4881 54.3478 46.4881C54.7233 46.4881 55.1414 46.3848 55.3303 46.245C55.6544 46.0053 55.6816 46.0258 57.2689 47.6968C58.1545 48.629 58.879 49.443 58.879 49.5059C58.879 49.5687 50.3643 49.6202 39.9575 49.6202H21.0358L20.743 50.0132C20.3736 50.509 20.3736 50.8195 20.743 51.3152L21.0358 51.7082H23.5687C24.9617 51.7082 26.1015 51.7504 26.1015 51.8019C26.1015 51.8535 25.9025 52.6854 25.6594 53.6507L25.2173 55.4059L23.6461 55.4614C21.7966 55.5264 21.0601 55.8233 20.0218 56.9219C19.1468 57.848 18.7296 58.8343 18.6444 60.1787C18.5821 61.1637 18.6063 61.3009 18.9017 61.6329L19.2279 61.9993H33.7307H48.2335L48.5597 61.6329C48.8551 61.3009 48.8793 61.1637 48.817 60.1787C48.7318 58.8337 48.3142 57.8468 47.4396 56.9236C46.412 55.8387 45.6671 55.5394 43.8153 55.4672L42.2441 55.4059L41.802 53.6507C41.5589 52.6854 41.36 51.8535 41.36 51.8019C41.36 51.7504 45.7951 51.7082 51.2158 51.7082H61.0718L63.6134 54.4036C65.3198 56.2131 66.3863 57.2244 66.8588 57.4809C69.5064 58.9189 72.6271 56.8774 72.6098 53.7187C72.6012 52.1351 72.3145 51.6687 69.539 48.7223L67.0734 46.1048L67.0655 27.0939C67.0594 12.7717 67.0159 7.95543 66.8889 7.56616C66.7925 7.27085 66.5145 6.90321 66.2401 6.70857C65.7613 6.36867 65.7465 6.36777 60.4458 6.36777H55.1318L54.0733 5.43561C51.2144 2.91757 47.7697 1.17942 44.0657 0.385963C42.4689 0.0438214 38.579 -0.106667 37.0509 0.114666ZM37.4901 2.19033C32.7735 2.81973 28.5132 5.0875 25.2364 8.7128C22.7493 11.4644 21.1461 14.6029 20.2035 18.5654C19.8534 20.037 19.8229 20.4062 19.8188 23.2213C19.8128 27.358 20.2145 29.2938 21.7839 32.6921C24.4777 38.5249 29.5868 42.7299 35.7443 44.1819C37.307 44.5504 41.1161 44.6406 42.8498 44.3503C49.3255 43.2655 54.9622 38.9137 57.9111 32.7227C58.9273 30.5887 59.4903 28.4759 59.958 25.04C60.0901 24.0686 60.906 23.6732 61.583 24.2523C61.8783 24.5049 61.9123 24.6445 61.8791 25.4703C61.7924 27.6319 60.9575 30.8412 59.804 33.4469L59.1614 34.8987L60.352 36.2025C61.7993 37.7874 62.0234 38.348 61.637 39.4163L61.3861 40.1099L63.17 41.9933L64.9541 43.8766V28.478V13.0794H62.3945C60.0211 13.0794 59.8407 13.0983 59.9136 13.3404C59.9568 13.484 60.224 14.234 60.5074 15.0075C61.4395 17.5514 61.9115 20.0193 61.5531 20.4752C61.0529 21.1115 59.9616 20.9392 59.7989 20.1984C59.7588 20.0153 59.6294 19.3678 59.5114 18.7596C57.9413 10.6632 51.6969 4.16861 43.859 2.48013C42.2297 2.12903 39.0374 1.98377 37.4901 2.19033ZM37.3334 4.58518C27.8739 6.14823 21.1946 14.9989 22.0118 24.888C22.4082 29.6852 24.3576 33.8839 27.7471 37.2411C29.159 38.6394 29.6978 38.9656 30.2357 38.7476C31.1064 38.3945 31.0538 37.3329 30.1327 36.668C29.3271 36.0867 27.2751 33.7416 26.5817 32.6101C25.6714 31.1246 24.8997 29.3256 24.4668 27.6797C23.9668 25.7793 23.8336 22.3045 24.1851 20.3347C26.1478 9.33548 37.3607 3.36247 46.8485 8.26208C54.0286 11.97 57.4828 20.8104 54.8791 28.8143C53.0457 34.4504 48.5796 38.5531 42.9141 39.8055C40.9642 40.2367 37.615 40.1266 35.7338 39.5698C35.0095 39.3553 34.2723 39.18 34.0957 39.18C33.4511 39.18 33.087 40.1081 33.4503 40.8247C33.6135 41.1466 35.0198 41.6319 36.7683 41.9699C38.4844 42.3017 41.5373 42.2573 43.3003 41.8752C50.4261 40.3302 55.8813 34.615 57.4044 27.0991C57.7186 25.5484 57.8253 22.5044 57.6193 20.9696C57.2175 17.9773 56.203 15.1611 54.6376 12.6926C53.6782 11.1798 51.3537 8.72592 49.9207 7.71322C48.2441 6.52825 46.1188 5.51689 44.2262 5.00323C42.802 4.61679 42.2438 4.54371 40.371 4.49822C39.1666 4.46899 37.7997 4.50822 37.3334 4.58518ZM57.0423 8.52875C57.0423 8.56887 57.3191 8.98827 57.6575 9.46092C57.9957 9.93341 58.3476 10.4712 58.4395 10.6557C58.6051 10.9885 58.6325 10.9913 61.7802 10.9913H64.9541V9.72356V8.45582H60.9982C58.8225 8.45582 57.0423 8.48863 57.0423 8.52875ZM28.6455 18.5371C27.5308 19.0473 26.8833 20.1438 26.9788 21.3594C27.0848 22.7081 27.6868 23.2714 30.0072 24.1934C30.5335 24.4025 31.0779 24.6825 31.217 24.8155C31.7629 25.3369 31.4035 26.0364 30.4648 26.2798C29.9338 26.4175 29.049 26.1249 28.4322 25.6073C27.7954 25.0731 27.2165 25.0298 26.8134 25.4867C26.41 25.9437 26.4541 26.4065 26.9588 27.0133C28.0544 28.3306 30.3387 28.7879 31.8254 27.9877C32.306 27.7291 32.68 27.3737 33.0027 26.8691C33.4357 26.1918 33.4709 26.0527 33.4209 25.2154C33.3782 24.5013 33.2805 24.1822 32.974 23.7581C32.461 23.0481 32.1715 22.8595 30.4443 22.1085C29.3333 21.6254 28.9877 21.4083 28.9544 21.1717C28.8433 20.3826 30.2682 20.1347 31.308 20.7622C31.6462 20.9662 32.0972 21.1333 32.3104 21.1333C33.1666 21.1333 33.4785 19.9338 32.7961 19.2661C31.9172 18.4063 29.7593 18.0271 28.6455 18.5371ZM36.4254 18.6925C36.1445 19.0694 36.1325 19.2612 36.1325 23.374C36.1325 28.8167 35.897 28.3668 38.7462 28.3668C40.755 28.3668 40.8282 28.3558 41.0898 28.0147C41.4101 27.5973 41.4361 27.1171 41.1599 26.7174C40.9925 26.4752 40.7331 26.4157 39.5705 26.3534L38.1811 26.2788L38.139 25.3466L38.0971 24.4145H39.2149C40.5362 24.4145 41.0774 24.108 41.0774 23.3596C41.0774 22.5634 40.6722 22.3264 39.3114 22.3264H38.1105V21.357V20.3875H39.3884C40.5569 20.3875 40.6961 20.3562 41.0131 20.0214C41.4368 19.5742 41.4517 19.2085 41.0671 18.6925C40.7751 18.3005 40.769 18.2995 38.7462 18.2995C36.7235 18.2995 36.7174 18.3005 36.4254 18.6925ZM47.2938 18.4304C46.5445 18.6899 45.7868 19.1954 45.2171 19.8158C42.9141 22.3242 43.6502 26.4758 46.6581 27.943C47.8561 28.5273 49.4172 28.5397 50.5603 27.9738C52.7569 26.8866 53.9241 24.3858 53.3065 22.0897C53.0406 21.1013 52.3036 19.8588 51.7068 19.393C50.7362 18.6355 50.0796 18.3963 48.8479 18.3517C48.1874 18.3277 47.4881 18.3632 47.2938 18.4304ZM8.58244 23.445V26.8008H13.258H17.9336L17.8312 26.0178C17.6991 25.0079 17.6985 21.5442 17.8302 20.7231L17.9319 20.0892H13.2572H8.58244V23.445ZM47.5058 20.5963C46.499 21.0648 45.881 22.1203 45.881 23.3716C45.881 24.6829 46.629 25.754 47.8447 26.1836C49.2883 26.6939 50.8909 25.7726 51.3293 24.1803C51.5949 23.2158 51.5015 22.5686 50.9683 21.6811C50.2913 20.5541 48.6808 20.0497 47.5058 20.5963ZM57.4703 37.481C56.7665 38.5154 54.6412 40.798 53.5969 41.6409C53.0887 42.051 52.6706 42.4558 52.6678 42.5404C52.6648 42.6251 53.0447 43.0934 53.5118 43.5814L54.3611 44.4685L57.0439 41.6392C58.5194 40.0832 59.7267 38.7401 59.7267 38.6548C59.7267 38.4979 58.16 36.7936 58.0159 36.7936C57.973 36.7936 57.7275 37.1029 57.4703 37.481ZM58.5258 43.0578L57.1164 44.5513L62.2715 50.009C65.1394 53.0452 67.6283 55.5593 67.8812 55.6755C68.1313 55.7904 68.504 55.8843 68.7097 55.8843C69.2281 55.8843 70.0899 55.3429 70.3709 54.8405C70.6591 54.3255 70.6747 53.3225 70.4027 52.7821C70.2912 52.5606 67.8906 49.9459 65.0676 46.9718L59.9352 41.5642L58.5258 43.0578ZM6.87914 42.8853C6.66156 43.0713 6.55744 43.3203 6.55744 43.6543C6.55744 43.9884 6.66156 44.2374 6.87914 44.4233C7.17823 44.679 7.5515 44.6984 12.1761 44.6984H17.1514L17.4587 44.3532C17.8571 43.9054 17.8493 43.3417 17.4389 42.9346C17.1159 42.6143 17.0498 42.6103 12.1563 42.6103C7.55094 42.6103 7.17823 42.6297 6.87914 42.8853ZM28.1664 51.9692C27.8011 53.2716 27.373 55.0175 27.373 55.2051C27.373 55.4112 28.0752 55.4369 33.7307 55.4369C39.3863 55.4369 40.0884 55.4112 40.0884 55.2051C40.0884 55.0175 39.6603 53.2716 39.295 51.9692C39.2267 51.7264 38.8381 51.7082 33.7307 51.7082C28.6234 51.7082 28.2347 51.7264 28.1664 51.9692ZM22.2878 57.7625C21.6932 58.0349 21.1995 58.5019 20.9312 59.0462C20.4712 59.9796 19.4595 59.9113 33.7307 59.9113C45.3754 59.9113 46.7287 59.8873 46.7287 59.6801C46.7287 59.3423 46.3807 58.6919 45.9984 58.3151C45.1747 57.5032 45.5089 57.5245 33.6999 57.5308C24.2672 57.5358 22.7142 57.5673 22.2878 57.7625Z" fill="url(#paint0_linear_4_287)"/>
<defs>
<linearGradient id="paint0_linear_4_287" x1="36.4999" y1="0.010498" x2="36.4999" y2="61.9993" gradientUnits="userSpaceOnUse">
<stop stop-color="#FFA800"/>
<stop offset="1" stop-color="#DD6A00"/>
</linearGradient>
</defs>
</svg>
