<svg width="73" height="62" viewBox="0 0 73 62" fill="none" xmlns="http://www.w3.org/2000/svg">
<path fill-rule="evenodd" clip-rule="evenodd" d="M5.6133 0.187496C3.18317 0.7912 1.19532 2.81778 0.622442 5.27566C0.313299 6.60236 0.311466 43.074 0.620468 44.3883C1.22197 46.9451 3.39006 49.0663 5.88225 49.536C6.81306 49.7115 15.4737 49.7282 15.9779 49.5556C16.8261 49.265 17.0811 48.1209 16.4287 47.5328L16.059 47.1996L11.1611 47.1361C6.44934 47.075 6.24104 47.0619 5.681 46.792C4.89107 46.4114 4.01315 45.482 3.62347 44.6139L3.3015 43.8965V31.7004V19.5044L33.9408 19.4724L64.5801 19.4402V25.9198V32.3992L64.0512 32.402C63.411 32.4054 62.3921 32.8027 61.8692 33.2529L61.4852 33.5833L60.5294 33.1938C60.0036 32.9796 59.4362 32.7681 59.2686 32.7238C59.0258 32.6596 58.9435 32.5084 58.8642 31.9813C58.6964 30.8645 58.0921 30.0634 57.0549 29.583C56.3689 29.2653 53.9048 29.1263 52.6698 29.3357C51.1253 29.5976 50.1126 30.5642 49.9567 31.9253L49.8786 32.6068L48.6289 33.0825L47.3794 33.5583L46.8322 33.1622C45.7685 32.3922 44.4353 32.2509 43.2842 32.7861C42.5855 33.1111 40.2355 35.2923 39.9757 35.857C39.5306 36.8243 39.7952 38.0447 40.6469 38.9534L41.015 39.3461L40.4743 40.4779L39.9336 41.6097L39.1761 41.6779C38.3108 41.756 37.7344 42.0015 37.2006 42.5195C36.4513 43.2465 36.3226 43.6476 36.2591 45.4528L36.1999 47.1361H31.8334H27.4668L27.0546 47.5074C26.3627 48.1308 26.5535 49.1248 27.444 49.535C27.657 49.6331 29.6402 49.6769 33.8632 49.6769H39.9745L40.5125 50.8236L41.0505 51.9703L40.6334 52.3983C39.7388 53.316 39.5332 54.6357 40.1231 55.6728C40.492 56.3213 42.7335 58.2763 43.4385 58.5644C44.3144 58.9224 45.3151 58.9003 46.1992 58.5035C46.5918 58.3273 47.0173 58.0794 47.1447 57.9524C47.3675 57.7307 47.4249 57.739 48.6276 58.1674L49.8789 58.6129L50.032 59.4452C50.2301 60.5217 50.7362 61.1778 51.7294 61.6452C52.4424 61.9807 52.5837 62 54.3197 62C55.3296 62 56.3977 61.9347 56.6933 61.855C57.8861 61.533 58.7563 60.5067 58.9 59.2523C58.943 58.8771 59.0487 58.5692 59.1348 58.5683C59.2209 58.5674 59.7969 58.368 60.4146 58.1251L61.5378 57.6834L61.9659 58.0567C62.7832 58.7692 63.9541 58.9967 65.1997 58.6852C65.8923 58.5119 68.3876 56.3724 68.8069 55.5924C69.3536 54.5746 69.1125 53.2146 68.2415 52.4037L67.827 52.018L68.3173 51.0063C68.587 50.4498 68.8084 49.9231 68.8094 49.8357C68.8104 49.7381 69.0085 49.6769 69.3236 49.6769C70.2276 49.6769 70.9659 49.3944 71.6389 48.7907C72.5122 48.0074 72.6601 47.475 72.598 45.3391C72.5521 43.7686 72.5202 43.5992 72.1695 43.0618C71.6293 42.234 70.8387 41.7788 69.7793 41.6853L68.9215 41.6097L68.5983 40.8338C68.4204 40.407 68.1752 39.884 68.0532 39.6714C67.8516 39.3206 67.8516 39.2699 68.0525 39.1197C68.174 39.0287 68.4574 38.6657 68.682 38.3129C69.4095 37.1705 69.1776 35.8415 68.0557 34.7229L67.5543 34.223L67.5119 19.9399L67.4694 5.65679L67.084 4.63054C66.872 4.06597 66.4556 3.2656 66.1584 2.85195C65.5545 2.01106 64.3756 0.998406 63.5693 0.627824C62.1476 -0.0255542 63.5115 0.00252202 33.8407 0.0147181C12.0063 0.0237381 6.12779 0.0596911 5.6133 0.187496ZM6.33285 2.66228C5.18527 2.97887 4.14684 3.9003 3.62361 5.06642C3.30798 5.76973 3.30093 5.89309 3.25947 11.3419L3.21716 16.9H33.8986H64.5801V11.4603C64.5801 5.38365 64.5662 5.2749 63.6293 4.06698C63.3217 3.67023 62.8025 3.21567 62.4034 2.99335L61.7111 2.60778L34.1988 2.58631C19.0668 2.57449 6.52719 2.60867 6.33285 2.66228ZM12.3981 5.66174C11.5247 5.87873 10.3442 6.55434 9.90633 7.08792C9.11062 8.05738 8.94364 8.52527 8.94322 9.78566C8.9428 10.92 8.97199 11.041 9.4271 11.7972C10.3114 13.2665 11.7293 14.0273 13.5998 14.0362C14.6007 14.0409 14.8398 13.9934 15.6741 13.6234C17.318 12.8944 18.2106 11.6677 18.2985 10.0166C18.36 8.86308 18.1175 8.09384 17.4251 7.24482C16.2969 5.86145 14.2231 5.20833 12.3981 5.66174ZM24.9985 5.59174C21.2848 6.29683 19.9436 10.6452 22.7383 12.9195C23.6918 13.6956 24.7023 14.0418 26.0084 14.0399C26.9638 14.0387 27.2649 13.9821 27.9671 13.6726C28.9973 13.2186 29.8176 12.4759 30.2955 11.5643C30.6003 10.9828 30.6618 10.6842 30.6618 9.78566C30.6618 8.86067 30.6052 8.60214 30.2678 7.98293C29.3075 6.22149 27.058 5.20071 24.9985 5.59174ZM41.697 5.60419C38.7998 6.2192 37.1822 9.05072 38.3392 11.4819C38.7279 12.2988 39.7787 13.2704 40.7278 13.6904L41.5213 14.0416H48.996H56.4707L57.2673 13.7052C58.9133 13.01 59.929 11.6641 60.0335 10.0397C60.1342 8.47268 59.4202 7.16313 57.9749 6.2638C56.7428 5.4971 56.3703 5.46483 48.9312 5.47893C45.2436 5.48604 41.9883 5.54232 41.697 5.60419ZM13.1327 8.14275C11.8977 8.37816 11.303 9.72887 12.0121 10.6879C12.7196 11.6448 13.9564 11.7842 14.8914 11.0123C15.2809 10.6907 15.4031 10.4784 15.4599 10.0246C15.6155 8.78088 14.5033 7.88143 13.1327 8.14275ZM25.4227 8.15088C25.1785 8.21186 24.7817 8.46366 24.5413 8.7105C23.6791 9.59497 24.0723 10.9572 25.3129 11.384C26.1103 11.6583 26.8723 11.4902 27.4021 10.9231C28.629 9.60945 27.2601 7.69239 25.4227 8.15088ZM42.0854 8.19522C40.5954 8.67874 40.344 10.3863 41.6372 11.2384C42.0246 11.4937 42.2174 11.5016 48.8299 11.5343C55.0857 11.565 55.6635 11.5499 56.1153 11.3437C57.4992 10.7119 57.6032 9.06495 56.3076 8.29978C55.9492 8.08825 55.4099 8.0683 49.2846 8.04137C43.8024 8.01723 42.5515 8.04404 42.0854 8.19522ZM22.5932 26.9319C22.0367 27.2376 22.0965 27.0586 20.3833 33.5532C19.6104 36.4835 19.0868 38.724 19.129 38.9221C19.2289 39.3927 19.9296 39.8947 20.4869 39.8947C20.9836 39.8947 21.4841 39.6333 21.7074 39.2575C21.935 38.8745 24.6679 28.4718 24.6679 27.9886C24.6679 27.4218 24.4713 27.1098 23.9656 26.8741C23.4216 26.6208 23.1381 26.6327 22.5932 26.9319ZM13.1797 27.9712C12.968 28.1212 11.8804 29.1644 10.7624 30.2898C9.4058 31.6553 8.67582 32.4941 8.56723 32.8121C8.27825 33.658 8.53013 34.054 10.8527 36.406C12.0229 37.591 13.0836 38.6322 13.2099 38.7195C13.336 38.8069 13.7008 38.8783 14.0205 38.8783C14.8207 38.8783 15.3598 38.3822 15.3598 37.6458C15.3598 37.1596 15.2412 37.0053 13.5264 35.2624C12.518 34.2375 11.6929 33.3576 11.6929 33.307C11.6929 33.2564 12.0579 32.8445 12.5039 32.3914C15.4545 29.3942 15.3598 29.5082 15.3598 28.9585C15.3598 27.9072 14.0847 27.3299 13.1797 27.9712ZM28.887 28.0523C28.5435 28.3287 28.4476 28.5096 28.4476 28.881C28.4476 29.4731 28.5101 29.5548 30.5065 31.5734C31.4048 32.4817 32.1405 33.2611 32.1412 33.3052C32.1421 33.3494 31.345 34.1926 30.3699 35.1791C28.2432 37.3307 28.0296 37.8065 28.856 38.5509C29.131 38.7988 29.3605 38.8773 29.7995 38.8743C30.1187 38.8721 30.4799 38.8006 30.6021 38.7155C31.2359 38.2744 35.1256 34.1869 35.2596 33.8212C35.552 33.0233 35.3343 32.6186 33.7221 30.9622C32.8931 30.1105 31.7995 29.0279 31.2919 28.5561C30.4803 27.802 30.3061 27.6986 29.8478 27.6986C29.4767 27.6986 29.1997 27.8006 28.887 28.0523ZM52.8275 31.9757C52.7757 32.0222 52.7334 32.5073 52.7334 33.0536C52.7334 33.9624 52.7005 34.0782 52.3455 34.4176C52.0814 34.6702 51.6283 34.8755 50.9249 35.0612C50.357 35.2114 49.3524 35.5884 48.6927 35.8993C48.0329 36.2102 47.3362 36.4645 47.1445 36.4645C46.6511 36.4645 46.1216 36.1855 45.4768 35.5856C45.1702 35.3004 44.8195 35.0671 44.6974 35.0671C44.456 35.0671 42.579 36.7068 42.579 36.9177C42.579 36.9887 42.8697 37.3017 43.225 37.6132C43.9214 38.2238 44.2714 38.7235 44.2714 39.107C44.2714 39.2396 44.037 39.7427 43.7505 40.2248C43.464 40.7071 43.0034 41.7018 42.727 42.4355C42.2693 43.6502 42.1805 43.7893 41.7319 43.9915C41.3982 44.1421 40.9078 44.2137 40.2121 44.2138L39.185 44.2141L39.2249 45.6433L39.2648 47.0725L40.4963 47.1361C42.0132 47.2143 42.2606 47.3983 42.7175 48.7876C42.8899 49.3117 43.31 50.2313 43.6512 50.8312C43.9923 51.4311 44.2714 52.0616 44.2714 52.2322C44.2714 52.6083 43.9538 53.0453 43.3189 53.5427C42.4225 54.2451 42.4307 54.3005 43.5836 55.346C44.152 55.8614 44.6844 56.2831 44.7669 56.2831C44.8492 56.2831 45.2285 55.9979 45.6097 55.6493C45.9909 55.3007 46.5157 54.9522 46.7759 54.8748C47.2105 54.7456 47.3658 54.7858 48.6866 55.3683C49.4774 55.717 50.5725 56.1219 51.1204 56.268C52.5448 56.6481 52.7548 56.891 52.8603 58.2807L52.9449 59.3956L54.3344 59.4321C55.2378 59.4559 55.7929 59.4171 55.921 59.3213C56.0588 59.2184 56.1182 58.8777 56.1182 58.1903C56.1182 56.8603 56.304 56.6562 57.921 56.213C58.5971 56.0275 59.7003 55.6188 60.3724 55.3047C61.8743 54.603 62.1214 54.6281 63.1754 55.5896C63.5937 55.971 63.9999 56.2831 64.0783 56.2831C64.2694 56.2831 66.2725 54.4839 66.2725 54.3123C66.2725 54.2381 65.9559 53.8965 65.5689 53.5531C65.1819 53.2097 64.7946 52.7358 64.7082 52.5002C64.5639 52.1061 64.6025 51.9823 65.1857 50.9694C65.5346 50.3633 65.9934 49.3658 66.2051 48.7524C66.7087 47.2942 66.9224 47.1361 68.3897 47.1361C69.1528 47.1361 69.5311 47.0826 69.6453 46.9585C69.7516 46.8431 69.7946 46.3431 69.7683 45.5292L69.7278 44.2776L68.5018 44.2113C66.9703 44.1285 66.7011 43.9392 66.2719 42.6431C66.1069 42.1446 65.6532 41.1525 65.2637 40.4384C64.6145 39.2485 64.5684 39.1047 64.7104 38.7172C64.7956 38.4846 65.1819 38.0134 65.5689 37.67C65.9559 37.3266 66.2725 36.985 66.2725 36.9108C66.2725 36.8365 65.7969 36.3502 65.2156 35.8301L64.1588 34.8845L63.488 35.4653C62.6255 36.2122 62.1981 36.4645 61.7954 36.4645C61.617 36.4645 60.9489 36.2268 60.3108 35.9363C59.6726 35.6459 58.5474 35.2313 57.8106 35.0152C56.5964 34.6593 56.4476 34.5807 56.2242 34.1778C56.0575 33.8773 55.9776 33.4343 55.9774 32.8121L55.9771 31.891H54.4493C53.6089 31.891 52.8791 31.9291 52.8275 31.9757ZM52.3103 38.0614C49.9383 38.62 47.7288 40.2457 46.6975 42.1912C46.0139 43.4809 45.8228 44.2512 45.8228 45.7181C45.8228 47.0859 46.084 48.0238 46.8195 49.2973C47.8359 51.0572 49.6487 52.4274 51.8057 53.066C53.2482 53.4931 55.4154 53.5453 56.7528 53.1851C59.6857 52.3952 61.9545 50.3516 62.8339 47.7078C63.012 47.1721 63.0846 46.549 63.078 45.6116C63.0618 43.3033 62.1851 41.52 60.2757 39.911C59.2605 39.0557 57.5439 38.2333 56.2875 38.0005C55.2605 37.8102 53.2459 37.841 52.3103 38.0614ZM53.0551 40.5189C51.4789 40.881 49.94 42.0291 49.1894 43.4024C48.3223 44.9888 48.504 47.122 49.6318 48.5986C50.8725 50.2228 53.1491 51.1265 55.2563 50.831C58.4633 50.3812 60.6917 47.6869 60.2009 44.8529C59.9005 43.1182 58.7689 41.7341 57.0112 40.9517C56.0695 40.5324 55.8162 40.4764 54.7305 40.4473C54.0587 40.4293 53.3048 40.4615 53.0551 40.5189ZM21.0603 47.2815C20.2463 47.6372 20.1088 48.7198 20.8031 49.3072C21.3435 49.7646 22.3151 49.7398 22.7762 49.2569C23.7958 48.1892 22.4715 46.6646 21.0603 47.2815Z" fill="url(#paint0_linear_4_279)"/>
<defs>
<linearGradient id="paint0_linear_4_279" x1="36.5" y1="0.010498" x2="36.5" y2="62" gradientUnits="userSpaceOnUse">
<stop stop-color="#FFA800"/>
<stop offset="1" stop-color="#DD6A00"/>
</linearGradient>
</defs>
</svg>
